<svg id="レイヤー_1" data-name="レイヤー 1" xmlns="http://www.w3.org/2000/svg" viewBox="0 0 286.3417 115.3417"><defs><style>.cls-1{fill-opacity:0;stroke:#000;stroke-linecap:round;stroke-linejoin:round;stroke-width:0.1417px;}</style></defs><circle class="cls-1" cx="280.9983" cy="5.4709" r="2.8346"/><circle class="cls-1" cx="280.8708" cy="109.8709" r="2.8346"/><circle class="cls-1" cx="5.4709" cy="109.8709" r="2.8347"/><circle class="cls-1" cx="5.4709" cy="5.4709" r="2.8346"/><path class="cls-1" d="M59.4,468V367.2" transform="translate(-59.3291 -359.9291)"/><path class="cls-1" d="M338.4,475.2H66.6" transform="translate(-59.3291 -359.9291)"/><path class="cls-1" d="M345.6,367.2V468" transform="translate(-59.3291 -359.9291)"/><path class="cls-1" d="M66.6,360H338.4" transform="translate(-59.3291 -359.9291)"/><path class="cls-1" d="M338.4,475.2a7.2,7.2,0,0,0,7.2-7.2" transform="translate(-59.3291 -359.9291)"/><path class="cls-1" d="M59.4,468a7.2,7.2,0,0,0,7.2,7.2" transform="translate(-59.3291 -359.9291)"/><path class="cls-1" d="M345.6,367.2a7.2,7.2,0,0,0-7.2-7.2h0" transform="translate(-59.3291 -359.9291)"/><path class="cls-1" d="M66.6,360a7.2,7.2,0,0,0-7.2,7.2h0" transform="translate(-59.3291 -359.9291)"/></svg>