  0
SECTION
  2
HEADER
  9
$ANGBASE
  50
0.0
  9
$ANGDIR
  70
1
  9
$MEASUREMENT
  70
0
  0
ENDSEC
  0
SECTION
  2
TABLES
  0
TABLE
  2
LTYPE
  70
4
  0
LTYPE
  5
40F
  2
CONTINUOUS
  70
0
  3
Solid line
  72
65
  73
0
  40
0.0
  0
LTYPE
  5
410
  2
DASHDOT
 70
0
  3
Dash Dot ____ _ ____ _
 72
65
 73
4
 40
2.0
 49
1.25
 49
-0.25
 49
0.25
 49
-0.25
  0
LTYPE
  5
411
  2
DASHED
 70
0
  3
Dashed __ __ __ __ __
 72
65
 73
2
 40
0.75
 49
0.5
 49
-0.25
  0
LTYPE
  5
43B
  2
DOTTED
 70
0
  3
Dotted .  .  .  .
 72
65
 73
2
 40
0.2
 49
0.0
 49
-0.2
  0
ENDTAB
  0
TABLE
  2
STYLE
  70
4
  0
STYLE
  2
KICAD
  70
0
  40
0
  41
1
  42
1
  50
0
  71
0
  3
isocp.shx
  0
STYLE
  2
KICADB
  70
0
  40
0
  41
1
  42
1
  50
0
  71
0
  3
isocp.shx
  0
STYLE
  2
KICADI
  70
0
  40
0
  41
1
  42
1
  50
15
  71
0
  3
isocp.shx
  0
STYLE
  2
KICADBI
  70
0
  40
0
  41
1
  42
1
  50
15
  71
0
  3
isocp.shx
  0
ENDTAB
  0
TABLE
  2
LAYER
  70
1
  0
LAYER
  2
BLACK
  70
0
  62
7
  6
CONTINUOUS
  0
ENDTAB
  0
ENDSEC
  0
SECTION
  2
ENTITIES
0
LINE
8
BLACK
6
CONTINUOUS
10
1.68415
20
-4.99811
11
1.68416
21
-4.99811
0
LINE
8
BLACK
6
CONTINUOUS
10
1.68416
20
-4.99811
11
1.68417
21
-4.99811
0
LINE
8
BLACK
6
CONTINUOUS
10
1.68417
20
-4.99811
11
1.68604
21
-4.99817
0
LINE
8
BLACK
6
CONTINUOUS
10
1.68604
20
-4.99817
11
1.68606
21
-4.99817
0
LINE
8
BLACK
6
CONTINUOUS
10
1.68606
20
-4.99817
11
1.68607
21
-4.99818
0
LINE
8
BLACK
6
CONTINUOUS
10
1.68607
20
-4.99818
11
1.68608
21
-4.99818
0
LINE
8
BLACK
6
CONTINUOUS
10
1.68608
20
-4.99818
11
1.68919
21
-4.9984
0
LINE
8
BLACK
6
CONTINUOUS
10
1.68919
20
-4.9984
11
1.6892
21
-4.9984
0
LINE
8
BLACK
6
CONTINUOUS
10
1.6892
20
-4.9984
11
1.68921
21
-4.99841
0
LINE
8
BLACK
6
CONTINUOUS
10
1.68921
20
-4.99841
11
1.68922
21
-4.99841
0
LINE
8
BLACK
6
CONTINUOUS
10
1.68922
20
-4.99841
11
1.69124
21
-4.99862
0
LINE
8
BLACK
6
CONTINUOUS
10
1.69124
20
-4.99862
11
1.69125
21
-4.99862
0
LINE
8
BLACK
6
CONTINUOUS
10
1.69125
20
-4.99862
11
1.69126
21
-4.99862
0
LINE
8
BLACK
6
CONTINUOUS
10
1.69126
20
-4.99862
11
1.69126
21
-4.99862
0
LINE
8
BLACK
6
CONTINUOUS
10
1.69126
20
-4.99862
11
1.69357
21
-4.99891
0
LINE
8
BLACK
6
CONTINUOUS
10
1.69357
20
-4.99891
11
1.69358
21
-4.99892
0
LINE
8
BLACK
6
CONTINUOUS
10
1.69358
20
-4.99892
11
1.69359
21
-4.99892
0
LINE
8
BLACK
6
CONTINUOUS
10
1.69359
20
-4.99892
11
1.69359
21
-4.99892
0
LINE
8
BLACK
6
CONTINUOUS
10
1.69359
20
-4.99892
11
1.69614
21
-4.99931
0
LINE
8
BLACK
6
CONTINUOUS
10
1.69614
20
-4.99931
11
1.69616
21
-4.99931
0
LINE
8
BLACK
6
CONTINUOUS
10
1.69616
20
-4.99931
11
1.69616
21
-4.99931
0
LINE
8
BLACK
6
CONTINUOUS
10
1.69616
20
-4.99931
11
1.69617
21
-4.99931
0
LINE
8
BLACK
6
CONTINUOUS
10
1.69617
20
-4.99931
11
1.69895
21
-4.99982
0
LINE
8
BLACK
6
CONTINUOUS
10
1.69895
20
-4.99982
11
1.69896
21
-4.99982
0
LINE
8
BLACK
6
CONTINUOUS
10
1.69896
20
-4.99982
11
1.69897
21
-4.99982
0
LINE
8
BLACK
6
CONTINUOUS
10
1.69897
20
-4.99982
11
1.69897
21
-4.99982
0
LINE
8
BLACK
6
CONTINUOUS
10
1.69897
20
-4.99982
11
1.70194
21
-5.00045
0
LINE
8
BLACK
6
CONTINUOUS
10
1.70194
20
-5.00045
11
1.70196
21
-5.00045
0
LINE
8
BLACK
6
CONTINUOUS
10
1.70196
20
-5.00045
11
1.70196
21
-5.00045
0
LINE
8
BLACK
6
CONTINUOUS
10
1.70196
20
-5.00045
11
1.70197
21
-5.00046
0
LINE
8
BLACK
6
CONTINUOUS
10
1.70197
20
-5.00046
11
1.70511
21
-5.00122
0
LINE
8
BLACK
6
CONTINUOUS
10
1.70511
20
-5.00122
11
1.70512
21
-5.00123
0
LINE
8
BLACK
6
CONTINUOUS
10
1.70512
20
-5.00123
11
1.70513
21
-5.00123
0
LINE
8
BLACK
6
CONTINUOUS
10
1.70513
20
-5.00123
11
1.70514
21
-5.00123
0
LINE
8
BLACK
6
CONTINUOUS
10
1.70514
20
-5.00123
11
1.70842
21
-5.00215
0
LINE
8
BLACK
6
CONTINUOUS
10
1.70842
20
-5.00215
11
1.70843
21
-5.00215
0
LINE
8
BLACK
6
CONTINUOUS
10
1.70843
20
-5.00215
11
1.70844
21
-5.00216
0
LINE
8
BLACK
6
CONTINUOUS
10
1.70844
20
-5.00216
11
1.70845
21
-5.00216
0
LINE
8
BLACK
6
CONTINUOUS
10
1.70845
20
-5.00216
11
1.71184
21
-5.00325
0
LINE
8
BLACK
6
CONTINUOUS
10
1.71184
20
-5.00325
11
1.71185
21
-5.00325
0
LINE
8
BLACK
6
CONTINUOUS
10
1.71185
20
-5.00325
11
1.71186
21
-5.00326
0
LINE
8
BLACK
6
CONTINUOUS
10
1.71186
20
-5.00326
11
1.71188
21
-5.00326
0
LINE
8
BLACK
6
CONTINUOUS
10
1.71188
20
-5.00326
11
1.71535
21
-5.00453
0
LINE
8
BLACK
6
CONTINUOUS
10
1.71535
20
-5.00453
11
1.71536
21
-5.00453
0
LINE
8
BLACK
6
CONTINUOUS
10
1.71536
20
-5.00453
11
1.71537
21
-5.00454
0
LINE
8
BLACK
6
CONTINUOUS
10
1.71537
20
-5.00454
11
1.71538
21
-5.00454
0
LINE
8
BLACK
6
CONTINUOUS
10
1.71538
20
-5.00454
11
1.71891
21
-5.006
0
LINE
8
BLACK
6
CONTINUOUS
10
1.71891
20
-5.006
11
1.71892
21
-5.00601
0
LINE
8
BLACK
6
CONTINUOUS
10
1.71892
20
-5.00601
11
1.71894
21
-5.00602
0
LINE
8
BLACK
6
CONTINUOUS
10
1.71894
20
-5.00602
11
1.71895
21
-5.00602
0
LINE
8
BLACK
6
CONTINUOUS
10
1.71895
20
-5.00602
11
1.72251
21
-5.00769
0
LINE
8
BLACK
6
CONTINUOUS
10
1.72251
20
-5.00769
11
1.72252
21
-5.0077
0
LINE
8
BLACK
6
CONTINUOUS
10
1.72252
20
-5.0077
11
1.72253
21
-5.00771
0
LINE
8
BLACK
6
CONTINUOUS
10
1.72253
20
-5.00771
11
1.72255
21
-5.00771
0
LINE
8
BLACK
6
CONTINUOUS
10
1.72255
20
-5.00771
11
1.7261
21
-5.00961
0
LINE
8
BLACK
6
CONTINUOUS
10
1.7261
20
-5.00961
11
1.72612
21
-5.00961
0
LINE
8
BLACK
6
CONTINUOUS
10
1.72612
20
-5.00961
11
1.72613
21
-5.00962
0
LINE
8
BLACK
6
CONTINUOUS
10
1.72613
20
-5.00962
11
1.72615
21
-5.00963
0
LINE
8
BLACK
6
CONTINUOUS
10
1.72615
20
-5.00963
11
1.72967
21
-5.01176
0
LINE
8
BLACK
6
CONTINUOUS
10
1.72967
20
-5.01176
11
1.72969
21
-5.01177
0
LINE
8
BLACK
6
CONTINUOUS
10
1.72969
20
-5.01177
11
1.7297
21
-5.01178
0
LINE
8
BLACK
6
CONTINUOUS
10
1.7297
20
-5.01178
11
1.72972
21
-5.01179
0
LINE
8
BLACK
6
CONTINUOUS
10
1.72972
20
-5.01179
11
1.73319
21
-5.01417
0
LINE
8
BLACK
6
CONTINUOUS
10
1.73319
20
-5.01417
11
1.7332
21
-5.01418
0
LINE
8
BLACK
6
CONTINUOUS
10
1.7332
20
-5.01418
11
1.73322
21
-5.0142
0
LINE
8
BLACK
6
CONTINUOUS
10
1.73322
20
-5.0142
11
1.73324
21
-5.01421
0
LINE
8
BLACK
6
CONTINUOUS
10
1.73324
20
-5.01421
11
1.73663
21
-5.01685
0
LINE
8
BLACK
6
CONTINUOUS
10
1.73663
20
-5.01685
11
1.73664
21
-5.01686
0
LINE
8
BLACK
6
CONTINUOUS
10
1.73664
20
-5.01686
11
1.73666
21
-5.01688
0
LINE
8
BLACK
6
CONTINUOUS
10
1.73666
20
-5.01688
11
1.73668
21
-5.01689
0
LINE
8
BLACK
6
CONTINUOUS
10
1.73668
20
-5.01689
11
1.73995
21
-5.01981
0
LINE
8
BLACK
6
CONTINUOUS
10
1.73995
20
-5.01981
11
1.73996
21
-5.01982
0
LINE
8
BLACK
6
CONTINUOUS
10
1.73996
20
-5.01982
11
1.73998
21
-5.01984
0
LINE
8
BLACK
6
CONTINUOUS
10
1.73998
20
-5.01984
11
1.74
21
-5.01986
0
LINE
8
BLACK
6
CONTINUOUS
10
1.74
20
-5.01986
11
1.74314
21
-5.02307
0
LINE
8
BLACK
6
CONTINUOUS
10
1.74314
20
-5.02307
11
1.74315
21
-5.02308
0
LINE
8
BLACK
6
CONTINUOUS
10
1.74315
20
-5.02308
11
1.74317
21
-5.02311
0
LINE
8
BLACK
6
CONTINUOUS
10
1.74317
20
-5.02311
11
1.74319
21
-5.02313
0
LINE
8
BLACK
6
CONTINUOUS
10
1.74319
20
-5.02313
11
1.74616
21
-5.02664
0
LINE
8
BLACK
6
CONTINUOUS
10
1.74616
20
-5.02664
11
1.74617
21
-5.02665
0
LINE
8
BLACK
6
CONTINUOUS
10
1.74617
20
-5.02665
11
1.74618
21
-5.02668
0
LINE
8
BLACK
6
CONTINUOUS
10
1.74618
20
-5.02668
11
1.7462
21
-5.0267
0
LINE
8
BLACK
6
CONTINUOUS
10
1.7462
20
-5.0267
11
1.74898
21
-5.03054
0
LINE
8
BLACK
6
CONTINUOUS
10
1.74898
20
-5.03054
11
1.74898
21
-5.03055
0
LINE
8
BLACK
6
CONTINUOUS
10
1.74898
20
-5.03055
11
1.749
21
-5.03058
0
LINE
8
BLACK
6
CONTINUOUS
10
1.749
20
-5.03058
11
1.74902
21
-5.0306
0
LINE
8
BLACK
6
CONTINUOUS
10
1.74902
20
-5.0306
11
1.75157
21
-5.03478
0
LINE
8
BLACK
6
CONTINUOUS
10
1.75157
20
-5.03478
11
1.75158
21
-5.03479
0
LINE
8
BLACK
6
CONTINUOUS
10
1.75158
20
-5.03479
11
1.75159
21
-5.03482
0
LINE
8
BLACK
6
CONTINUOUS
10
1.75159
20
-5.03482
11
1.75161
21
-5.03484
0
LINE
8
BLACK
6
CONTINUOUS
10
1.75161
20
-5.03484
11
1.75391
21
-5.03936
0
LINE
8
BLACK
6
CONTINUOUS
10
1.75391
20
-5.03936
11
1.75392
21
-5.03937
0
LINE
8
BLACK
6
CONTINUOUS
10
1.75392
20
-5.03937
11
1.75393
21
-5.0394
0
LINE
8
BLACK
6
CONTINUOUS
10
1.75393
20
-5.0394
11
1.75394
21
-5.03943
0
LINE
8
BLACK
6
CONTINUOUS
10
1.75394
20
-5.03943
11
1.75597
21
-5.04431
0
LINE
8
BLACK
6
CONTINUOUS
10
1.75597
20
-5.04431
11
1.75597
21
-5.04433
0
LINE
8
BLACK
6
CONTINUOUS
10
1.75597
20
-5.04433
11
1.75598
21
-5.04436
0
LINE
8
BLACK
6
CONTINUOUS
10
1.75598
20
-5.04436
11
1.75599
21
-5.04438
0
LINE
8
BLACK
6
CONTINUOUS
10
1.75599
20
-5.04438
11
1.75771
21
-5.04964
0
LINE
8
BLACK
6
CONTINUOUS
10
1.75771
20
-5.04964
11
1.75772
21
-5.04965
0
LINE
8
BLACK
6
CONTINUOUS
10
1.75772
20
-5.04965
11
1.75772
21
-5.04968
0
LINE
8
BLACK
6
CONTINUOUS
10
1.75772
20
-5.04968
11
1.75773
21
-5.04971
0
LINE
8
BLACK
6
CONTINUOUS
10
1.75773
20
-5.04971
11
1.75912
21
-5.05536
0
LINE
8
BLACK
6
CONTINUOUS
10
1.75912
20
-5.05536
11
1.75912
21
-5.05537
0
LINE
8
BLACK
6
CONTINUOUS
10
1.75912
20
-5.05537
11
1.75913
21
-5.0554
0
LINE
8
BLACK
6
CONTINUOUS
10
1.75913
20
-5.0554
11
1.75913
21
-5.05543
0
LINE
8
BLACK
6
CONTINUOUS
10
1.75913
20
-5.05543
11
1.76016
21
-5.06147
0
LINE
8
BLACK
6
CONTINUOUS
10
1.76016
20
-5.06147
11
1.76016
21
-5.06149
0
LINE
8
BLACK
6
CONTINUOUS
10
1.76016
20
-5.06149
11
1.76016
21
-5.06152
0
LINE
8
BLACK
6
CONTINUOUS
10
1.76016
20
-5.06152
11
1.76017
21
-5.06154
0
LINE
8
BLACK
6
CONTINUOUS
10
1.76017
20
-5.06154
11
1.7608
21
-5.06801
0
LINE
8
BLACK
6
CONTINUOUS
10
1.7608
20
-5.06801
11
1.7608
21
-5.06802
0
LINE
8
BLACK
6
CONTINUOUS
10
1.7608
20
-5.06802
11
1.7608
21
-5.06805
0
LINE
8
BLACK
6
CONTINUOUS
10
1.7608
20
-5.06805
11
1.76081
21
-5.06807
0
LINE
8
BLACK
6
CONTINUOUS
10
1.76081
20
-5.06807
11
1.76102
21
-5.07497
0
LINE
8
BLACK
6
CONTINUOUS
10
1.76102
20
-5.07497
11
1.76102
21
-5.07498
0
LINE
8
BLACK
6
CONTINUOUS
10
1.76102
20
-5.07498
11
1.76102
21
-5.07499
0
LINE
8
BLACK
6
CONTINUOUS
10
1.76102
20
-5.07499
11
1.76102
21
-5.075
0
LINE
8
BLACK
6
CONTINUOUS
10
1.76102
20
-5.075
11
1.76102
21
-6.52319
0
LINE
8
BLACK
6
CONTINUOUS
10
1.76102
20
-6.52319
11
1.76102
21
-6.5232
0
LINE
8
BLACK
6
CONTINUOUS
10
1.76102
20
-6.5232
11
1.76102
21
-6.52321
0
LINE
8
BLACK
6
CONTINUOUS
10
1.76102
20
-6.52321
11
1.76102
21
-6.52322
0
LINE
8
BLACK
6
CONTINUOUS
10
1.76102
20
-6.52322
11
1.761
21
-6.52404
0
LINE
8
BLACK
6
CONTINUOUS
10
1.761
20
-6.52404
11
1.761
21
-6.52405
0
LINE
8
BLACK
6
CONTINUOUS
10
1.761
20
-6.52405
11
1.761
21
-6.52406
0
LINE
8
BLACK
6
CONTINUOUS
10
1.761
20
-6.52406
11
1.761
21
-6.52407
0
LINE
8
BLACK
6
CONTINUOUS
10
1.761
20
-6.52407
11
1.76085
21
-6.52639
0
LINE
8
BLACK
6
CONTINUOUS
10
1.76085
20
-6.52639
11
1.76085
21
-6.52641
0
LINE
8
BLACK
6
CONTINUOUS
10
1.76085
20
-6.52641
11
1.76085
21
-6.52642
0
LINE
8
BLACK
6
CONTINUOUS
10
1.76085
20
-6.52642
11
1.76085
21
-6.52643
0
LINE
8
BLACK
6
CONTINUOUS
10
1.76085
20
-6.52643
11
1.76047
21
-6.53005
0
LINE
8
BLACK
6
CONTINUOUS
10
1.76047
20
-6.53005
11
1.76047
21
-6.53006
0
LINE
8
BLACK
6
CONTINUOUS
10
1.76047
20
-6.53006
11
1.76046
21
-6.53007
0
LINE
8
BLACK
6
CONTINUOUS
10
1.76046
20
-6.53007
11
1.76046
21
-6.53008
0
LINE
8
BLACK
6
CONTINUOUS
10
1.76046
20
-6.53008
11
1.76015
21
-6.5323
0
LINE
8
BLACK
6
CONTINUOUS
10
1.76015
20
-6.5323
11
1.76015
21
-6.53232
0
LINE
8
BLACK
6
CONTINUOUS
10
1.76015
20
-6.53232
11
1.76015
21
-6.53232
0
LINE
8
BLACK
6
CONTINUOUS
10
1.76015
20
-6.53232
11
1.76015
21
-6.53233
0
LINE
8
BLACK
6
CONTINUOUS
10
1.76015
20
-6.53233
11
1.75974
21
-6.5348
0
LINE
8
BLACK
6
CONTINUOUS
10
1.75974
20
-6.5348
11
1.75974
21
-6.53481
0
LINE
8
BLACK
6
CONTINUOUS
10
1.75974
20
-6.53481
11
1.75974
21
-6.53482
0
LINE
8
BLACK
6
CONTINUOUS
10
1.75974
20
-6.53482
11
1.75974
21
-6.53483
0
LINE
8
BLACK
6
CONTINUOUS
10
1.75974
20
-6.53483
11
1.75922
21
-6.53751
0
LINE
8
BLACK
6
CONTINUOUS
10
1.75922
20
-6.53751
11
1.75921
21
-6.53753
0
LINE
8
BLACK
6
CONTINUOUS
10
1.75921
20
-6.53753
11
1.75921
21
-6.53753
0
LINE
8
BLACK
6
CONTINUOUS
10
1.75921
20
-6.53753
11
1.75921
21
-6.53754
0
LINE
8
BLACK
6
CONTINUOUS
10
1.75921
20
-6.53754
11
1.75856
21
-6.54042
0
LINE
8
BLACK
6
CONTINUOUS
10
1.75856
20
-6.54042
11
1.75856
21
-6.54043
0
LINE
8
BLACK
6
CONTINUOUS
10
1.75856
20
-6.54043
11
1.75856
21
-6.54044
0
LINE
8
BLACK
6
CONTINUOUS
10
1.75856
20
-6.54044
11
1.75856
21
-6.54045
0
LINE
8
BLACK
6
CONTINUOUS
10
1.75856
20
-6.54045
11
1.75777
21
-6.5435
0
LINE
8
BLACK
6
CONTINUOUS
10
1.75777
20
-6.5435
11
1.75777
21
-6.54351
0
LINE
8
BLACK
6
CONTINUOUS
10
1.75777
20
-6.54351
11
1.75776
21
-6.54352
0
LINE
8
BLACK
6
CONTINUOUS
10
1.75776
20
-6.54352
11
1.75776
21
-6.54353
0
LINE
8
BLACK
6
CONTINUOUS
10
1.75776
20
-6.54353
11
1.75682
21
-6.54671
0
LINE
8
BLACK
6
CONTINUOUS
10
1.75682
20
-6.54671
11
1.75682
21
-6.54673
0
LINE
8
BLACK
6
CONTINUOUS
10
1.75682
20
-6.54673
11
1.75681
21
-6.54674
0
LINE
8
BLACK
6
CONTINUOUS
10
1.75681
20
-6.54674
11
1.75681
21
-6.54675
0
LINE
8
BLACK
6
CONTINUOUS
10
1.75681
20
-6.54675
11
1.75571
21
-6.55004
0
LINE
8
BLACK
6
CONTINUOUS
10
1.75571
20
-6.55004
11
1.7557
21
-6.55006
0
LINE
8
BLACK
6
CONTINUOUS
10
1.7557
20
-6.55006
11
1.7557
21
-6.55007
0
LINE
8
BLACK
6
CONTINUOUS
10
1.7557
20
-6.55007
11
1.75569
21
-6.55008
0
LINE
8
BLACK
6
CONTINUOUS
10
1.75569
20
-6.55008
11
1.75441
21
-6.55347
0
LINE
8
BLACK
6
CONTINUOUS
10
1.75441
20
-6.55347
11
1.75441
21
-6.55348
0
LINE
8
BLACK
6
CONTINUOUS
10
1.75441
20
-6.55348
11
1.7544
21
-6.55349
0
LINE
8
BLACK
6
CONTINUOUS
10
1.7544
20
-6.55349
11
1.75439
21
-6.55351
0
LINE
8
BLACK
6
CONTINUOUS
10
1.75439
20
-6.55351
11
1.75292
21
-6.55695
0
LINE
8
BLACK
6
CONTINUOUS
10
1.75292
20
-6.55695
11
1.75291
21
-6.55696
0
LINE
8
BLACK
6
CONTINUOUS
10
1.75291
20
-6.55696
11
1.7529
21
-6.55698
0
LINE
8
BLACK
6
CONTINUOUS
10
1.7529
20
-6.55698
11
1.7529
21
-6.55699
0
LINE
8
BLACK
6
CONTINUOUS
10
1.7529
20
-6.55699
11
1.75121
21
-6.56047
0
LINE
8
BLACK
6
CONTINUOUS
10
1.75121
20
-6.56047
11
1.75121
21
-6.56048
0
LINE
8
BLACK
6
CONTINUOUS
10
1.75121
20
-6.56048
11
1.7512
21
-6.5605
0
LINE
8
BLACK
6
CONTINUOUS
10
1.7512
20
-6.5605
11
1.75119
21
-6.56052
0
LINE
8
BLACK
6
CONTINUOUS
10
1.75119
20
-6.56052
11
1.74929
21
-6.564
0
LINE
8
BLACK
6
CONTINUOUS
10
1.74929
20
-6.564
11
1.74928
21
-6.56402
0
LINE
8
BLACK
6
CONTINUOUS
10
1.74928
20
-6.56402
11
1.74927
21
-6.56403
0
LINE
8
BLACK
6
CONTINUOUS
10
1.74927
20
-6.56403
11
1.74926
21
-6.56405
0
LINE
8
BLACK
6
CONTINUOUS
10
1.74926
20
-6.56405
11
1.74712
21
-6.56752
0
LINE
8
BLACK
6
CONTINUOUS
10
1.74712
20
-6.56752
11
1.74711
21
-6.56753
0
LINE
8
BLACK
6
CONTINUOUS
10
1.74711
20
-6.56753
11
1.7471
21
-6.56755
0
LINE
8
BLACK
6
CONTINUOUS
10
1.7471
20
-6.56755
11
1.74709
21
-6.56757
0
LINE
8
BLACK
6
CONTINUOUS
10
1.74709
20
-6.56757
11
1.7447
21
-6.571
0
LINE
8
BLACK
6
CONTINUOUS
10
1.7447
20
-6.571
11
1.74469
21
-6.57101
0
LINE
8
BLACK
6
CONTINUOUS
10
1.74469
20
-6.57101
11
1.74468
21
-6.57102
0
LINE
8
BLACK
6
CONTINUOUS
10
1.74468
20
-6.57102
11
1.74467
21
-6.57104
0
LINE
8
BLACK
6
CONTINUOUS
10
1.74467
20
-6.57104
11
1.74202
21
-6.5744
0
LINE
8
BLACK
6
CONTINUOUS
10
1.74202
20
-6.5744
11
1.74201
21
-6.57441
0
LINE
8
BLACK
6
CONTINUOUS
10
1.74201
20
-6.57441
11
1.74199
21
-6.57443
0
LINE
8
BLACK
6
CONTINUOUS
10
1.74199
20
-6.57443
11
1.74198
21
-6.57445
0
LINE
8
BLACK
6
CONTINUOUS
10
1.74198
20
-6.57445
11
1.73905
21
-6.57771
0
LINE
8
BLACK
6
CONTINUOUS
10
1.73905
20
-6.57771
11
1.73905
21
-6.57772
0
LINE
8
BLACK
6
CONTINUOUS
10
1.73905
20
-6.57772
11
1.73903
21
-6.57774
0
LINE
8
BLACK
6
CONTINUOUS
10
1.73903
20
-6.57774
11
1.73901
21
-6.57776
0
LINE
8
BLACK
6
CONTINUOUS
10
1.73901
20
-6.57776
11
1.7358
21
-6.5809
0
LINE
8
BLACK
6
CONTINUOUS
10
1.7358
20
-6.5809
11
1.73579
21
-6.58091
0
LINE
8
BLACK
6
CONTINUOUS
10
1.73579
20
-6.58091
11
1.73577
21
-6.58092
0
LINE
8
BLACK
6
CONTINUOUS
10
1.73577
20
-6.58092
11
1.73575
21
-6.58094
0
LINE
8
BLACK
6
CONTINUOUS
10
1.73575
20
-6.58094
11
1.73223
21
-6.58393
0
LINE
8
BLACK
6
CONTINUOUS
10
1.73223
20
-6.58393
11
1.73222
21
-6.58394
0
LINE
8
BLACK
6
CONTINUOUS
10
1.73222
20
-6.58394
11
1.7322
21
-6.58396
0
LINE
8
BLACK
6
CONTINUOUS
10
1.7322
20
-6.58396
11
1.73218
21
-6.58398
0
LINE
8
BLACK
6
CONTINUOUS
10
1.73218
20
-6.58398
11
1.72835
21
-6.58679
0
LINE
8
BLACK
6
CONTINUOUS
10
1.72835
20
-6.58679
11
1.72834
21
-6.5868
0
LINE
8
BLACK
6
CONTINUOUS
10
1.72834
20
-6.5868
11
1.72831
21
-6.58681
0
LINE
8
BLACK
6
CONTINUOUS
10
1.72831
20
-6.58681
11
1.72829
21
-6.58683
0
LINE
8
BLACK
6
CONTINUOUS
10
1.72829
20
-6.58683
11
1.72413
21
-6.58945
0
LINE
8
BLACK
6
CONTINUOUS
10
1.72413
20
-6.58945
11
1.72412
21
-6.58945
0
LINE
8
BLACK
6
CONTINUOUS
10
1.72412
20
-6.58945
11
1.72409
21
-6.58947
0
LINE
8
BLACK
6
CONTINUOUS
10
1.72409
20
-6.58947
11
1.72407
21
-6.58948
0
LINE
8
BLACK
6
CONTINUOUS
10
1.72407
20
-6.58948
11
1.71957
21
-6.59187
0
LINE
8
BLACK
6
CONTINUOUS
10
1.71957
20
-6.59187
11
1.71955
21
-6.59188
0
LINE
8
BLACK
6
CONTINUOUS
10
1.71955
20
-6.59188
11
1.71953
21
-6.59189
0
LINE
8
BLACK
6
CONTINUOUS
10
1.71953
20
-6.59189
11
1.7195
21
-6.5919
0
LINE
8
BLACK
6
CONTINUOUS
10
1.7195
20
-6.5919
11
1.71464
21
-6.59404
0
LINE
8
BLACK
6
CONTINUOUS
10
1.71464
20
-6.59404
11
1.71463
21
-6.59404
0
LINE
8
BLACK
6
CONTINUOUS
10
1.71463
20
-6.59404
11
1.7146
21
-6.59405
0
LINE
8
BLACK
6
CONTINUOUS
10
1.7146
20
-6.59405
11
1.71457
21
-6.59406
0
LINE
8
BLACK
6
CONTINUOUS
10
1.71457
20
-6.59406
11
1.70935
21
-6.59592
0
LINE
8
BLACK
6
CONTINUOUS
10
1.70935
20
-6.59592
11
1.70933
21
-6.59592
0
LINE
8
BLACK
6
CONTINUOUS
10
1.70933
20
-6.59592
11
1.70931
21
-6.59593
0
LINE
8
BLACK
6
CONTINUOUS
10
1.70931
20
-6.59593
11
1.70928
21
-6.59594
0
LINE
8
BLACK
6
CONTINUOUS
10
1.70928
20
-6.59594
11
1.70367
21
-6.59749
0
LINE
8
BLACK
6
CONTINUOUS
10
1.70367
20
-6.59749
11
1.70365
21
-6.59749
0
LINE
8
BLACK
6
CONTINUOUS
10
1.70365
20
-6.59749
11
1.70363
21
-6.5975
0
LINE
8
BLACK
6
CONTINUOUS
10
1.70363
20
-6.5975
11
1.7036
21
-6.59751
0
LINE
8
BLACK
6
CONTINUOUS
10
1.7036
20
-6.59751
11
1.69759
21
-6.59872
0
LINE
8
BLACK
6
CONTINUOUS
10
1.69759
20
-6.59872
11
1.69758
21
-6.59873
0
LINE
8
BLACK
6
CONTINUOUS
10
1.69758
20
-6.59873
11
1.69755
21
-6.59873
0
LINE
8
BLACK
6
CONTINUOUS
10
1.69755
20
-6.59873
11
1.69753
21
-6.59874
0
LINE
8
BLACK
6
CONTINUOUS
10
1.69753
20
-6.59874
11
1.69111
21
-6.5996
0
LINE
8
BLACK
6
CONTINUOUS
10
1.69111
20
-6.5996
11
1.6911
21
-6.5996
0
LINE
8
BLACK
6
CONTINUOUS
10
1.6911
20
-6.5996
11
1.69107
21
-6.5996
0
LINE
8
BLACK
6
CONTINUOUS
10
1.69107
20
-6.5996
11
1.69105
21
-6.5996
0
LINE
8
BLACK
6
CONTINUOUS
10
1.69105
20
-6.5996
11
1.6842
21
-6.60008
0
LINE
8
BLACK
6
CONTINUOUS
10
1.6842
20
-6.60008
11
1.68419
21
-6.60008
0
LINE
8
BLACK
6
CONTINUOUS
10
1.68419
20
-6.60008
11
1.68416
21
-6.60008
0
LINE
8
BLACK
6
CONTINUOUS
10
1.68416
20
-6.60008
11
1.68413
21
-6.60008
0
LINE
8
BLACK
6
CONTINUOUS
10
1.68413
20
-6.60008
11
0.900905
21
-6.60008
0
LINE
8
BLACK
6
CONTINUOUS
10
0.900905
20
-6.60008
11
0.900891
21
-6.60008
0
LINE
8
BLACK
6
CONTINUOUS
10
0.900891
20
-6.60008
11
0.900889
21
-6.60008
0
LINE
8
BLACK
6
CONTINUOUS
10
0.900889
20
-6.60008
11
0.900888
21
-6.60008
0
LINE
8
BLACK
6
CONTINUOUS
10
0.900888
20
-6.60008
11
0.899069
21
-6.60005
0
LINE
8
BLACK
6
CONTINUOUS
10
0.899069
20
-6.60005
11
0.899055
21
-6.60005
0
LINE
8
BLACK
6
CONTINUOUS
10
0.899055
20
-6.60005
11
0.899041
21
-6.60005
0
LINE
8
BLACK
6
CONTINUOUS
10
0.899041
20
-6.60005
11
0.899028
21
-6.60005
0
LINE
8
BLACK
6
CONTINUOUS
10
0.899028
20
-6.60005
11
0.896014
21
-6.59987
0
LINE
8
BLACK
6
CONTINUOUS
10
0.896014
20
-6.59987
11
0.896
21
-6.59987
0
LINE
8
BLACK
6
CONTINUOUS
10
0.896
20
-6.59987
11
0.895991
21
-6.59987
0
LINE
8
BLACK
6
CONTINUOUS
10
0.895991
20
-6.59987
11
0.895982
21
-6.59987
0
LINE
8
BLACK
6
CONTINUOUS
10
0.895982
20
-6.59987
11
0.894015
21
-6.59969
0
LINE
8
BLACK
6
CONTINUOUS
10
0.894015
20
-6.59969
11
0.894001
21
-6.59969
0
LINE
8
BLACK
6
CONTINUOUS
10
0.894001
20
-6.59969
11
0.893996
21
-6.59969
0
LINE
8
BLACK
6
CONTINUOUS
10
0.893996
20
-6.59969
11
0.893991
21
-6.59969
0
LINE
8
BLACK
6
CONTINUOUS
10
0.893991
20
-6.59969
11
0.891751
21
-6.59943
0
LINE
8
BLACK
6
CONTINUOUS
10
0.891751
20
-6.59943
11
0.891738
21
-6.59942
0
LINE
8
BLACK
6
CONTINUOUS
10
0.891738
20
-6.59942
11
0.891732
21
-6.59942
0
LINE
8
BLACK
6
CONTINUOUS
10
0.891732
20
-6.59942
11
0.891726
21
-6.59942
0
LINE
8
BLACK
6
CONTINUOUS
10
0.891726
20
-6.59942
11
0.889241
21
-6.59907
0
LINE
8
BLACK
6
CONTINUOUS
10
0.889241
20
-6.59907
11
0.889227
21
-6.59907
0
LINE
8
BLACK
6
CONTINUOUS
10
0.889227
20
-6.59907
11
0.889221
21
-6.59906
0
LINE
8
BLACK
6
CONTINUOUS
10
0.889221
20
-6.59906
11
0.889214
21
-6.59906
0
LINE
8
BLACK
6
CONTINUOUS
10
0.889214
20
-6.59906
11
0.88651
21
-6.5986
0
LINE
8
BLACK
6
CONTINUOUS
10
0.88651
20
-6.5986
11
0.886496
21
-6.5986
0
LINE
8
BLACK
6
CONTINUOUS
10
0.886496
20
-6.5986
11
0.886488
21
-6.5986
0
LINE
8
BLACK
6
CONTINUOUS
10
0.886488
20
-6.5986
11
0.88648
21
-6.5986
0
LINE
8
BLACK
6
CONTINUOUS
10
0.88648
20
-6.5986
11
0.883584
21
-6.59801
0
LINE
8
BLACK
6
CONTINUOUS
10
0.883584
20
-6.59801
11
0.883571
21
-6.59801
0
LINE
8
BLACK
6
CONTINUOUS
10
0.883571
20
-6.59801
11
0.883562
21
-6.598
0
LINE
8
BLACK
6
CONTINUOUS
10
0.883562
20
-6.598
11
0.883553
21
-6.598
0
LINE
8
BLACK
6
CONTINUOUS
10
0.883553
20
-6.598
11
0.880491
21
-6.59728
0
LINE
8
BLACK
6
CONTINUOUS
10
0.880491
20
-6.59728
11
0.880478
21
-6.59727
0
LINE
8
BLACK
6
CONTINUOUS
10
0.880478
20
-6.59727
11
0.880467
21
-6.59727
0
LINE
8
BLACK
6
CONTINUOUS
10
0.880467
20
-6.59727
11
0.880457
21
-6.59727
0
LINE
8
BLACK
6
CONTINUOUS
10
0.880457
20
-6.59727
11
0.877256
21
-6.59639
0
LINE
8
BLACK
6
CONTINUOUS
10
0.877256
20
-6.59639
11
0.877243
21
-6.59638
0
LINE
8
BLACK
6
CONTINUOUS
10
0.877243
20
-6.59638
11
0.877231
21
-6.59638
0
LINE
8
BLACK
6
CONTINUOUS
10
0.877231
20
-6.59638
11
0.87722
21
-6.59638
0
LINE
8
BLACK
6
CONTINUOUS
10
0.87722
20
-6.59638
11
0.873906
21
-6.59533
0
LINE
8
BLACK
6
CONTINUOUS
10
0.873906
20
-6.59533
11
0.873893
21
-6.59533
0
LINE
8
BLACK
6
CONTINUOUS
10
0.873893
20
-6.59533
11
0.87388
21
-6.59532
0
LINE
8
BLACK
6
CONTINUOUS
10
0.87388
20
-6.59532
11
0.873867
21
-6.59532
0
LINE
8
BLACK
6
CONTINUOUS
10
0.873867
20
-6.59532
11
0.870467
21
-6.59409
0
LINE
8
BLACK
6
CONTINUOUS
10
0.870467
20
-6.59409
11
0.870454
21
-6.59408
0
LINE
8
BLACK
6
CONTINUOUS
10
0.870454
20
-6.59408
11
0.87044
21
-6.59408
0
LINE
8
BLACK
6
CONTINUOUS
10
0.87044
20
-6.59408
11
0.870426
21
-6.59407
0
LINE
8
BLACK
6
CONTINUOUS
10
0.870426
20
-6.59407
11
0.866965
21
-6.59265
0
LINE
8
BLACK
6
CONTINUOUS
10
0.866965
20
-6.59265
11
0.866953
21
-6.59264
0
LINE
8
BLACK
6
CONTINUOUS
10
0.866953
20
-6.59264
11
0.866938
21
-6.59263
0
LINE
8
BLACK
6
CONTINUOUS
10
0.866938
20
-6.59263
11
0.866923
21
-6.59263
0
LINE
8
BLACK
6
CONTINUOUS
10
0.866923
20
-6.59263
11
0.863428
21
-6.59099
0
LINE
8
BLACK
6
CONTINUOUS
10
0.863428
20
-6.59099
11
0.863416
21
-6.59099
0
LINE
8
BLACK
6
CONTINUOUS
10
0.863416
20
-6.59099
11
0.8634
21
-6.59098
0
LINE
8
BLACK
6
CONTINUOUS
10
0.8634
20
-6.59098
11
0.863384
21
-6.59097
0
LINE
8
BLACK
6
CONTINUOUS
10
0.863384
20
-6.59097
11
0.859882
21
-6.58911
0
LINE
8
BLACK
6
CONTINUOUS
10
0.859882
20
-6.58911
11
0.85987
21
-6.5891
0
LINE
8
BLACK
6
CONTINUOUS
10
0.85987
20
-6.5891
11
0.859854
21
-6.58909
0
LINE
8
BLACK
6
CONTINUOUS
10
0.859854
20
-6.58909
11
0.859836
21
-6.58908
0
LINE
8
BLACK
6
CONTINUOUS
10
0.859836
20
-6.58908
11
0.856354
21
-6.58697
0
LINE
8
BLACK
6
CONTINUOUS
10
0.856354
20
-6.58697
11
0.856342
21
-6.58697
0
LINE
8
BLACK
6
CONTINUOUS
10
0.856342
20
-6.58697
11
0.856325
21
-6.58695
0
LINE
8
BLACK
6
CONTINUOUS
10
0.856325
20
-6.58695
11
0.856306
21
-6.58694
0
LINE
8
BLACK
6
CONTINUOUS
10
0.856306
20
-6.58694
11
0.85287
21
-6.58458
0
LINE
8
BLACK
6
CONTINUOUS
10
0.85287
20
-6.58458
11
0.852859
21
-6.58458
0
LINE
8
BLACK
6
CONTINUOUS
10
0.852859
20
-6.58458
11
0.852841
21
-6.58456
0
LINE
8
BLACK
6
CONTINUOUS
10
0.852841
20
-6.58456
11
0.852821
21
-6.58455
0
LINE
8
BLACK
6
CONTINUOUS
10
0.852821
20
-6.58455
11
0.849458
21
-6.58192
0
LINE
8
BLACK
6
CONTINUOUS
10
0.849458
20
-6.58192
11
0.849447
21
-6.58191
0
LINE
8
BLACK
6
CONTINUOUS
10
0.849447
20
-6.58191
11
0.849429
21
-6.58189
0
LINE
8
BLACK
6
CONTINUOUS
10
0.849429
20
-6.58189
11
0.849408
21
-6.58188
0
LINE
8
BLACK
6
CONTINUOUS
10
0.849408
20
-6.58188
11
0.846144
21
-6.57896
0
LINE
8
BLACK
6
CONTINUOUS
10
0.846144
20
-6.57896
11
0.846134
21
-6.57895
0
LINE
8
BLACK
6
CONTINUOUS
10
0.846134
20
-6.57895
11
0.846116
21
-6.57893
0
LINE
8
BLACK
6
CONTINUOUS
10
0.846116
20
-6.57893
11
0.846095
21
-6.57891
0
LINE
8
BLACK
6
CONTINUOUS
10
0.846095
20
-6.57891
11
0.842957
21
-6.5757
0
LINE
8
BLACK
6
CONTINUOUS
10
0.842957
20
-6.5757
11
0.842947
21
-6.57569
0
LINE
8
BLACK
6
CONTINUOUS
10
0.842947
20
-6.57569
11
0.84293
21
-6.57567
0
LINE
8
BLACK
6
CONTINUOUS
10
0.84293
20
-6.57567
11
0.84291
21
-6.57565
0
LINE
8
BLACK
6
CONTINUOUS
10
0.84291
20
-6.57565
11
0.839923
21
-6.57212
0
LINE
8
BLACK
6
CONTINUOUS
10
0.839923
20
-6.57212
11
0.839914
21
-6.57211
0
LINE
8
BLACK
6
CONTINUOUS
10
0.839914
20
-6.57211
11
0.839897
21
-6.57209
0
LINE
8
BLACK
6
CONTINUOUS
10
0.839897
20
-6.57209
11
0.839878
21
-6.57206
0
LINE
8
BLACK
6
CONTINUOUS
10
0.839878
20
-6.57206
11
0.83707
21
-6.56821
0
LINE
8
BLACK
6
CONTINUOUS
10
0.83707
20
-6.56821
11
0.837062
21
-6.5682
0
LINE
8
BLACK
6
CONTINUOUS
10
0.837062
20
-6.5682
11
0.837047
21
-6.56817
0
LINE
8
BLACK
6
CONTINUOUS
10
0.837047
20
-6.56817
11
0.837029
21
-6.56815
0
LINE
8
BLACK
6
CONTINUOUS
10
0.837029
20
-6.56815
11
0.834425
21
-6.56395
0
LINE
8
BLACK
6
CONTINUOUS
10
0.834425
20
-6.56395
11
0.834418
21
-6.56393
0
LINE
8
BLACK
6
CONTINUOUS
10
0.834418
20
-6.56393
11
0.834405
21
-6.56391
0
LINE
8
BLACK
6
CONTINUOUS
10
0.834405
20
-6.56391
11
0.834389
21
-6.56388
0
LINE
8
BLACK
6
CONTINUOUS
10
0.834389
20
-6.56388
11
0.832017
21
-6.55932
0
LINE
8
BLACK
6
CONTINUOUS
10
0.832017
20
-6.55932
11
0.83201
21
-6.55931
0
LINE
8
BLACK
6
CONTINUOUS
10
0.83201
20
-6.55931
11
0.831999
21
-6.55928
0
LINE
8
BLACK
6
CONTINUOUS
10
0.831999
20
-6.55928
11
0.831985
21
-6.55926
0
LINE
8
BLACK
6
CONTINUOUS
10
0.831985
20
-6.55926
11
0.829871
21
-6.55433
0
LINE
8
BLACK
6
CONTINUOUS
10
0.829871
20
-6.55433
11
0.829866
21
-6.55432
0
LINE
8
BLACK
6
CONTINUOUS
10
0.829866
20
-6.55432
11
0.829857
21
-6.55429
0
LINE
8
BLACK
6
CONTINUOUS
10
0.829857
20
-6.55429
11
0.829845
21
-6.55426
0
LINE
8
BLACK
6
CONTINUOUS
10
0.829845
20
-6.55426
11
0.828015
21
-6.54894
0
LINE
8
BLACK
6
CONTINUOUS
10
0.828015
20
-6.54894
11
0.828011
21
-6.54893
0
LINE
8
BLACK
6
CONTINUOUS
10
0.828011
20
-6.54893
11
0.828004
21
-6.5489
0
LINE
8
BLACK
6
CONTINUOUS
10
0.828004
20
-6.5489
11
0.827994
21
-6.54888
0
LINE
8
BLACK
6
CONTINUOUS
10
0.827994
20
-6.54888
11
0.826475
21
-6.54316
0
LINE
8
BLACK
6
CONTINUOUS
10
0.826475
20
-6.54316
11
0.826472
21
-6.54314
0
LINE
8
BLACK
6
CONTINUOUS
10
0.826472
20
-6.54314
11
0.826468
21
-6.54312
0
LINE
8
BLACK
6
CONTINUOUS
10
0.826468
20
-6.54312
11
0.82646
21
-6.54309
0
LINE
8
BLACK
6
CONTINUOUS
10
0.82646
20
-6.54309
11
0.825279
21
-6.53695
0
LINE
8
BLACK
6
CONTINUOUS
10
0.825279
20
-6.53695
11
0.825276
21
-6.53694
0
LINE
8
BLACK
6
CONTINUOUS
10
0.825276
20
-6.53694
11
0.825274
21
-6.53691
0
LINE
8
BLACK
6
CONTINUOUS
10
0.825274
20
-6.53691
11
0.825268
21
-6.53689
0
LINE
8
BLACK
6
CONTINUOUS
10
0.825268
20
-6.53689
11
0.824451
21
-6.53032
0
LINE
8
BLACK
6
CONTINUOUS
10
0.824451
20
-6.53032
11
0.824449
21
-6.53031
0
LINE
8
BLACK
6
CONTINUOUS
10
0.824449
20
-6.53031
11
0.824449
21
-6.53029
0
LINE
8
BLACK
6
CONTINUOUS
10
0.824449
20
-6.53029
11
0.824445
21
-6.53026
0
LINE
8
BLACK
6
CONTINUOUS
10
0.824445
20
-6.53026
11
0.824018
21
-6.52325
0
LINE
8
BLACK
6
CONTINUOUS
10
0.824018
20
-6.52325
11
0.824017
21
-6.52324
0
LINE
8
BLACK
6
CONTINUOUS
10
0.824017
20
-6.52324
11
0.824018
21
-6.52321
0
LINE
8
BLACK
6
CONTINUOUS
10
0.824018
20
-6.52321
11
0.824016
21
-6.52319
0
LINE
8
BLACK
6
CONTINUOUS
10
0.824016
20
-6.52319
11
0.824016
21
-6.02266
0
LINE
8
BLACK
6
CONTINUOUS
10
0.824016
20
-6.02266
11
0.824016
21
-6.02264
0
LINE
8
BLACK
6
CONTINUOUS
10
0.824016
20
-6.02264
11
0.824027
21
-6.02255
0
LINE
8
BLACK
6
CONTINUOUS
10
0.824027
20
-6.02255
11
0.824036
21
-6.02246
0
LINE
8
BLACK
6
CONTINUOUS
10
0.824036
20
-6.02246
11
0.824037
21
-6.02245
0
LINE
8
BLACK
6
CONTINUOUS
10
0.824037
20
-6.02245
11
0.824037
21
-6.02245
0
LINE
8
BLACK
6
CONTINUOUS
10
0.824037
20
-6.02245
11
0.824065
21
-6.02236
0
LINE
8
BLACK
6
CONTINUOUS
10
0.824065
20
-6.02236
11
0.824093
21
-6.02227
0
LINE
8
BLACK
6
CONTINUOUS
10
0.824093
20
-6.02227
11
0.824094
21
-6.02227
0
LINE
8
BLACK
6
CONTINUOUS
10
0.824094
20
-6.02227
11
0.824095
21
-6.02227
0
LINE
8
BLACK
6
CONTINUOUS
10
0.824095
20
-6.02227
11
0.824139
21
-6.02219
0
LINE
8
BLACK
6
CONTINUOUS
10
0.824139
20
-6.02219
11
0.824184
21
-6.0221
0
LINE
8
BLACK
6
CONTINUOUS
10
0.824184
20
-6.0221
11
0.824186
21
-6.0221
0
LINE
8
BLACK
6
CONTINUOUS
10
0.824186
20
-6.0221
11
0.824188
21
-6.0221
0
LINE
8
BLACK
6
CONTINUOUS
10
0.824188
20
-6.0221
11
0.824248
21
-6.02203
0
LINE
8
BLACK
6
CONTINUOUS
10
0.824248
20
-6.02203
11
0.824306
21
-6.02196
0
LINE
8
BLACK
6
CONTINUOUS
10
0.824306
20
-6.02196
11
0.824309
21
-6.02195
0
LINE
8
BLACK
6
CONTINUOUS
10
0.824309
20
-6.02195
11
0.824311
21
-6.02195
0
LINE
8
BLACK
6
CONTINUOUS
10
0.824311
20
-6.02195
11
0.824384
21
-6.02189
0
LINE
8
BLACK
6
CONTINUOUS
10
0.824384
20
-6.02189
11
0.824455
21
-6.02184
0
LINE
8
BLACK
6
CONTINUOUS
10
0.824455
20
-6.02184
11
0.824458
21
-6.02183
0
LINE
8
BLACK
6
CONTINUOUS
10
0.824458
20
-6.02183
11
0.824461
21
-6.02183
0
LINE
8
BLACK
6
CONTINUOUS
10
0.824461
20
-6.02183
11
0.824542
21
-6.02179
0
LINE
8
BLACK
6
CONTINUOUS
10
0.824542
20
-6.02179
11
0.824625
21
-6.02175
0
LINE
8
BLACK
6
CONTINUOUS
10
0.824625
20
-6.02175
11
0.824628
21
-6.02174
0
LINE
8
BLACK
6
CONTINUOUS
10
0.824628
20
-6.02174
11
0.824631
21
-6.02174
0
LINE
8
BLACK
6
CONTINUOUS
10
0.824631
20
-6.02174
11
0.824719
21
-6.02172
0
LINE
8
BLACK
6
CONTINUOUS
10
0.824719
20
-6.02172
11
0.824809
21
-6.02169
0
LINE
8
BLACK
6
CONTINUOUS
10
0.824809
20
-6.02169
11
0.824812
21
-6.02169
0
LINE
8
BLACK
6
CONTINUOUS
10
0.824812
20
-6.02169
11
0.824816
21
-6.02169
0
LINE
8
BLACK
6
CONTINUOUS
10
0.824816
20
-6.02169
11
0.824906
21
-6.02168
0
LINE
8
BLACK
6
CONTINUOUS
10
0.824906
20
-6.02168
11
0.825
21
-6.02167
0
LINE
8
BLACK
6
CONTINUOUS
10
0.825
20
-6.02167
11
0.977953
21
-6.02167
0
LINE
8
BLACK
6
CONTINUOUS
10
0.977953
20
-6.02167
11
0.977953
21
-5.66931
0
LINE
8
BLACK
6
CONTINUOUS
10
0.977953
20
-5.66931
11
0.825
21
-5.66931
0
LINE
8
BLACK
6
CONTINUOUS
10
0.825
20
-5.66931
11
0.824986
21
-5.66931
0
LINE
8
BLACK
6
CONTINUOUS
10
0.824986
20
-5.66931
11
0.82489
21
-5.6693
0
LINE
8
BLACK
6
CONTINUOUS
10
0.82489
20
-5.6693
11
0.824802
21
-5.66929
0
LINE
8
BLACK
6
CONTINUOUS
10
0.824802
20
-5.66929
11
0.824799
21
-5.66929
0
LINE
8
BLACK
6
CONTINUOUS
10
0.824799
20
-5.66929
11
0.824795
21
-5.66929
0
LINE
8
BLACK
6
CONTINUOUS
10
0.824795
20
-5.66929
11
0.824707
21
-5.66926
0
LINE
8
BLACK
6
CONTINUOUS
10
0.824707
20
-5.66926
11
0.824619
21
-5.66923
0
LINE
8
BLACK
6
CONTINUOUS
10
0.824619
20
-5.66923
11
0.824615
21
-5.66923
0
LINE
8
BLACK
6
CONTINUOUS
10
0.824615
20
-5.66923
11
0.824612
21
-5.66923
0
LINE
8
BLACK
6
CONTINUOUS
10
0.824612
20
-5.66923
11
0.824533
21
-5.66919
0
LINE
8
BLACK
6
CONTINUOUS
10
0.824533
20
-5.66919
11
0.82445
21
-5.66914
0
LINE
8
BLACK
6
CONTINUOUS
10
0.82445
20
-5.66914
11
0.824447
21
-5.66914
0
LINE
8
BLACK
6
CONTINUOUS
10
0.824447
20
-5.66914
11
0.824444
21
-5.66914
0
LINE
8
BLACK
6
CONTINUOUS
10
0.824444
20
-5.66914
11
0.824372
21
-5.66908
0
LINE
8
BLACK
6
CONTINUOUS
10
0.824372
20
-5.66908
11
0.824302
21
-5.66902
0
LINE
8
BLACK
6
CONTINUOUS
10
0.824302
20
-5.66902
11
0.824299
21
-5.66902
0
LINE
8
BLACK
6
CONTINUOUS
10
0.824299
20
-5.66902
11
0.824297
21
-5.66901
0
LINE
8
BLACK
6
CONTINUOUS
10
0.824297
20
-5.66901
11
0.824238
21
-5.66894
0
LINE
8
BLACK
6
CONTINUOUS
10
0.824238
20
-5.66894
11
0.82418
21
-5.66887
0
LINE
8
BLACK
6
CONTINUOUS
10
0.82418
20
-5.66887
11
0.824179
21
-5.66887
0
LINE
8
BLACK
6
CONTINUOUS
10
0.824179
20
-5.66887
11
0.824176
21
-5.66886
0
LINE
8
BLACK
6
CONTINUOUS
10
0.824176
20
-5.66886
11
0.824134
21
-5.66878
0
LINE
8
BLACK
6
CONTINUOUS
10
0.824134
20
-5.66878
11
0.82409
21
-5.6687
0
LINE
8
BLACK
6
CONTINUOUS
10
0.82409
20
-5.6687
11
0.824089
21
-5.6687
0
LINE
8
BLACK
6
CONTINUOUS
10
0.824089
20
-5.6687
11
0.824087
21
-5.66869
0
LINE
8
BLACK
6
CONTINUOUS
10
0.824087
20
-5.66869
11
0.824061
21
-5.66861
0
LINE
8
BLACK
6
CONTINUOUS
10
0.824061
20
-5.66861
11
0.824034
21
-5.66852
0
LINE
8
BLACK
6
CONTINUOUS
10
0.824034
20
-5.66852
11
0.824034
21
-5.66851
0
LINE
8
BLACK
6
CONTINUOUS
10
0.824034
20
-5.66851
11
0.824033
21
-5.66851
0
LINE
8
BLACK
6
CONTINUOUS
10
0.824033
20
-5.66851
11
0.824025
21
-5.66842
0
LINE
8
BLACK
6
CONTINUOUS
10
0.824025
20
-5.66842
11
0.824016
21
-5.66832
0
LINE
8
BLACK
6
CONTINUOUS
10
0.824016
20
-5.66832
11
0.824016
21
-5.075
0
LINE
8
BLACK
6
CONTINUOUS
10
0.824016
20
-5.075
11
0.824016
21
-5.07499
0
LINE
8
BLACK
6
CONTINUOUS
10
0.824016
20
-5.07499
11
0.824034
21
-5.07318
0
LINE
8
BLACK
6
CONTINUOUS
10
0.824034
20
-5.07318
11
0.824034
21
-5.07316
0
LINE
8
BLACK
6
CONTINUOUS
10
0.824034
20
-5.07316
11
0.824036
21
-5.07315
0
LINE
8
BLACK
6
CONTINUOUS
10
0.824036
20
-5.07315
11
0.824035
21
-5.07313
0
LINE
8
BLACK
6
CONTINUOUS
10
0.824035
20
-5.07313
11
0.824191
21
-5.07013
0
LINE
8
BLACK
6
CONTINUOUS
10
0.824191
20
-5.07013
11
0.824192
21
-5.07011
0
LINE
8
BLACK
6
CONTINUOUS
10
0.824192
20
-5.07011
11
0.824194
21
-5.07011
0
LINE
8
BLACK
6
CONTINUOUS
10
0.824194
20
-5.07011
11
0.824194
21
-5.0701
0
LINE
8
BLACK
6
CONTINUOUS
10
0.824194
20
-5.0701
11
0.82436
21
-5.06813
0
LINE
8
BLACK
6
CONTINUOUS
10
0.82436
20
-5.06813
11
0.824361
21
-5.06812
0
LINE
8
BLACK
6
CONTINUOUS
10
0.824361
20
-5.06812
11
0.824362
21
-5.06811
0
LINE
8
BLACK
6
CONTINUOUS
10
0.824362
20
-5.06811
11
0.824362
21
-5.06811
0
LINE
8
BLACK
6
CONTINUOUS
10
0.824362
20
-5.06811
11
0.824607
21
-5.06588
0
LINE
8
BLACK
6
CONTINUOUS
10
0.824607
20
-5.06588
11
0.824609
21
-5.06586
0
LINE
8
BLACK
6
CONTINUOUS
10
0.824609
20
-5.06586
11
0.82461
21
-5.06586
0
LINE
8
BLACK
6
CONTINUOUS
10
0.82461
20
-5.06586
11
0.82461
21
-5.06585
0
LINE
8
BLACK
6
CONTINUOUS
10
0.82461
20
-5.06585
11
0.824949
21
-5.06337
0
LINE
8
BLACK
6
CONTINUOUS
10
0.824949
20
-5.06337
11
0.824951
21
-5.06336
0
LINE
8
BLACK
6
CONTINUOUS
10
0.824951
20
-5.06336
11
0.824952
21
-5.06335
0
LINE
8
BLACK
6
CONTINUOUS
10
0.824952
20
-5.06335
11
0.824953
21
-5.06334
0
LINE
8
BLACK
6
CONTINUOUS
10
0.824953
20
-5.06334
11
0.8254
21
-5.06065
0
LINE
8
BLACK
6
CONTINUOUS
10
0.8254
20
-5.06065
11
0.825402
21
-5.06063
0
LINE
8
BLACK
6
CONTINUOUS
10
0.825402
20
-5.06063
11
0.825404
21
-5.06062
0
LINE
8
BLACK
6
CONTINUOUS
10
0.825404
20
-5.06062
11
0.825405
21
-5.06062
0
LINE
8
BLACK
6
CONTINUOUS
10
0.825405
20
-5.06062
11
0.825975
21
-5.05773
0
LINE
8
BLACK
6
CONTINUOUS
10
0.825975
20
-5.05773
11
0.825978
21
-5.05771
0
LINE
8
BLACK
6
CONTINUOUS
10
0.825978
20
-5.05771
11
0.825981
21
-5.0577
0
LINE
8
BLACK
6
CONTINUOUS
10
0.825981
20
-5.0577
11
0.825982
21
-5.05769
0
LINE
8
BLACK
6
CONTINUOUS
10
0.825982
20
-5.05769
11
0.826691
21
-5.05464
0
LINE
8
BLACK
6
CONTINUOUS
10
0.826691
20
-5.05464
11
0.826694
21
-5.05463
0
LINE
8
BLACK
6
CONTINUOUS
10
0.826694
20
-5.05463
11
0.826698
21
-5.05462
0
LINE
8
BLACK
6
CONTINUOUS
10
0.826698
20
-5.05462
11
0.826699
21
-5.0546
0
LINE
8
BLACK
6
CONTINUOUS
10
0.826699
20
-5.0546
11
0.827561
21
-5.05141
0
LINE
8
BLACK
6
CONTINUOUS
10
0.827561
20
-5.05141
11
0.827565
21
-5.0514
0
LINE
8
BLACK
6
CONTINUOUS
10
0.827565
20
-5.0514
11
0.827569
21
-5.05139
0
LINE
8
BLACK
6
CONTINUOUS
10
0.827569
20
-5.05139
11
0.827572
21
-5.05137
0
LINE
8
BLACK
6
CONTINUOUS
10
0.827572
20
-5.05137
11
0.828602
21
-5.04807
0
LINE
8
BLACK
6
CONTINUOUS
10
0.828602
20
-5.04807
11
0.828606
21
-5.04805
0
LINE
8
BLACK
6
CONTINUOUS
10
0.828606
20
-5.04805
11
0.828611
21
-5.04804
0
LINE
8
BLACK
6
CONTINUOUS
10
0.828611
20
-5.04804
11
0.828615
21
-5.04803
0
LINE
8
BLACK
6
CONTINUOUS
10
0.828615
20
-5.04803
11
0.829828
21
-5.04463
0
LINE
8
BLACK
6
CONTINUOUS
10
0.829828
20
-5.04463
11
0.829832
21
-5.04462
0
LINE
8
BLACK
6
CONTINUOUS
10
0.829832
20
-5.04462
11
0.829839
21
-5.04461
0
LINE
8
BLACK
6
CONTINUOUS
10
0.829839
20
-5.04461
11
0.829843
21
-5.04459
0
LINE
8
BLACK
6
CONTINUOUS
10
0.829843
20
-5.04459
11
0.831254
21
-5.04114
0
LINE
8
BLACK
6
CONTINUOUS
10
0.831254
20
-5.04114
11
0.831259
21
-5.04112
0
LINE
8
BLACK
6
CONTINUOUS
10
0.831259
20
-5.04112
11
0.831268
21
-5.04111
0
LINE
8
BLACK
6
CONTINUOUS
10
0.831268
20
-5.04111
11
0.831273
21
-5.04109
0
LINE
8
BLACK
6
CONTINUOUS
10
0.831273
20
-5.04109
11
0.832897
21
-5.0376
0
LINE
8
BLACK
6
CONTINUOUS
10
0.832897
20
-5.0376
11
0.832903
21
-5.03759
0
LINE
8
BLACK
6
CONTINUOUS
10
0.832903
20
-5.03759
11
0.832913
21
-5.03757
0
LINE
8
BLACK
6
CONTINUOUS
10
0.832913
20
-5.03757
11
0.83292
21
-5.03756
0
LINE
8
BLACK
6
CONTINUOUS
10
0.83292
20
-5.03756
11
0.834771
21
-5.03406
0
LINE
8
BLACK
6
CONTINUOUS
10
0.834771
20
-5.03406
11
0.834778
21
-5.03405
0
LINE
8
BLACK
6
CONTINUOUS
10
0.834778
20
-5.03405
11
0.834789
21
-5.03403
0
LINE
8
BLACK
6
CONTINUOUS
10
0.834789
20
-5.03403
11
0.834798
21
-5.03401
0
LINE
8
BLACK
6
CONTINUOUS
10
0.834798
20
-5.03401
11
0.836892
21
-5.03054
0
LINE
8
BLACK
6
CONTINUOUS
10
0.836892
20
-5.03054
11
0.8369
21
-5.03052
0
LINE
8
BLACK
6
CONTINUOUS
10
0.8369
20
-5.03052
11
0.836913
21
-5.03051
0
LINE
8
BLACK
6
CONTINUOUS
10
0.836913
20
-5.03051
11
0.836924
21
-5.03049
0
LINE
8
BLACK
6
CONTINUOUS
10
0.836924
20
-5.03049
11
0.839276
21
-5.02705
0
LINE
8
BLACK
6
CONTINUOUS
10
0.839276
20
-5.02705
11
0.839284
21
-5.02704
0
LINE
8
BLACK
6
CONTINUOUS
10
0.839284
20
-5.02704
11
0.839299
21
-5.02703
0
LINE
8
BLACK
6
CONTINUOUS
10
0.839299
20
-5.02703
11
0.839312
21
-5.02701
0
LINE
8
BLACK
6
CONTINUOUS
10
0.839312
20
-5.02701
11
0.841937
21
-5.02364
0
LINE
8
BLACK
6
CONTINUOUS
10
0.841937
20
-5.02364
11
0.841945
21
-5.02363
0
LINE
8
BLACK
6
CONTINUOUS
10
0.841945
20
-5.02363
11
0.841963
21
-5.02361
0
LINE
8
BLACK
6
CONTINUOUS
10
0.841963
20
-5.02361
11
0.841978
21
-5.02359
0
LINE
8
BLACK
6
CONTINUOUS
10
0.841978
20
-5.02359
11
0.844891
21
-5.02033
0
LINE
8
BLACK
6
CONTINUOUS
10
0.844891
20
-5.02033
11
0.8449
21
-5.02032
0
LINE
8
BLACK
6
CONTINUOUS
10
0.8449
20
-5.02032
11
0.84492
21
-5.0203
0
LINE
8
BLACK
6
CONTINUOUS
10
0.84492
20
-5.0203
11
0.844937
21
-5.02028
0
LINE
8
BLACK
6
CONTINUOUS
10
0.844937
20
-5.02028
11
0.848152
21
-5.01714
0
LINE
8
BLACK
6
CONTINUOUS
10
0.848152
20
-5.01714
11
0.848162
21
-5.01713
0
LINE
8
BLACK
6
CONTINUOUS
10
0.848162
20
-5.01713
11
0.848184
21
-5.01712
0
LINE
8
BLACK
6
CONTINUOUS
10
0.848184
20
-5.01712
11
0.848204
21
-5.0171
0
LINE
8
BLACK
6
CONTINUOUS
10
0.848204
20
-5.0171
11
0.851736
21
-5.01411
0
LINE
8
BLACK
6
CONTINUOUS
10
0.851736
20
-5.01411
11
0.851747
21
-5.0141
0
LINE
8
BLACK
6
CONTINUOUS
10
0.851747
20
-5.0141
11
0.851771
21
-5.01408
0
LINE
8
BLACK
6
CONTINUOUS
10
0.851771
20
-5.01408
11
0.851793
21
-5.01406
0
LINE
8
BLACK
6
CONTINUOUS
10
0.851793
20
-5.01406
11
0.855657
21
-5.01125
0
LINE
8
BLACK
6
CONTINUOUS
10
0.855657
20
-5.01125
11
0.855668
21
-5.01124
0
LINE
8
BLACK
6
CONTINUOUS
10
0.855668
20
-5.01124
11
0.855694
21
-5.01123
0
LINE
8
BLACK
6
CONTINUOUS
10
0.855694
20
-5.01123
11
0.855718
21
-5.01121
0
LINE
8
BLACK
6
CONTINUOUS
10
0.855718
20
-5.01121
11
0.85993
21
-5.0086
0
LINE
8
BLACK
6
CONTINUOUS
10
0.85993
20
-5.0086
11
0.859941
21
-5.0086
0
LINE
8
BLACK
6
CONTINUOUS
10
0.859941
20
-5.0086
11
0.859969
21
-5.00858
0
LINE
8
BLACK
6
CONTINUOUS
10
0.859969
20
-5.00858
11
0.859994
21
-5.00857
0
LINE
8
BLACK
6
CONTINUOUS
10
0.859994
20
-5.00857
11
0.864568
21
-5.00619
0
LINE
8
BLACK
6
CONTINUOUS
10
0.864568
20
-5.00619
11
0.86458
21
-5.00618
0
LINE
8
BLACK
6
CONTINUOUS
10
0.86458
20
-5.00618
11
0.864608
21
-5.00617
0
LINE
8
BLACK
6
CONTINUOUS
10
0.864608
20
-5.00617
11
0.864634
21
-5.00616
0
LINE
8
BLACK
6
CONTINUOUS
10
0.864634
20
-5.00616
11
0.869585
21
-5.00404
0
LINE
8
BLACK
6
CONTINUOUS
10
0.869585
20
-5.00404
11
0.869597
21
-5.00403
0
LINE
8
BLACK
6
CONTINUOUS
10
0.869597
20
-5.00403
11
0.869626
21
-5.00402
0
LINE
8
BLACK
6
CONTINUOUS
10
0.869626
20
-5.00402
11
0.869652
21
-5.00401
0
LINE
8
BLACK
6
CONTINUOUS
10
0.869652
20
-5.00401
11
0.874995
21
-5.00217
0
LINE
8
BLACK
6
CONTINUOUS
10
0.874995
20
-5.00217
11
0.875008
21
-5.00217
0
LINE
8
BLACK
6
CONTINUOUS
10
0.875008
20
-5.00217
11
0.875036
21
-5.00216
0
LINE
8
BLACK
6
CONTINUOUS
10
0.875036
20
-5.00216
11
0.875062
21
-5.00215
0
LINE
8
BLACK
6
CONTINUOUS
10
0.875062
20
-5.00215
11
0.880812
21
-5.00062
0
LINE
8
BLACK
6
CONTINUOUS
10
0.880812
20
-5.00062
11
0.880825
21
-5.00061
0
LINE
8
BLACK
6
CONTINUOUS
10
0.880825
20
-5.00061
11
0.880852
21
-5.00061
0
LINE
8
BLACK
6
CONTINUOUS
10
0.880852
20
-5.00061
11
0.880878
21
-5.0006
0
LINE
8
BLACK
6
CONTINUOUS
10
0.880878
20
-5.0006
11
0.887049
21
-4.99941
0
LINE
8
BLACK
6
CONTINUOUS
10
0.887049
20
-4.99941
11
0.887063
21
-4.99941
0
LINE
8
BLACK
6
CONTINUOUS
10
0.887063
20
-4.99941
11
0.887089
21
-4.9994
0
LINE
8
BLACK
6
CONTINUOUS
10
0.887089
20
-4.9994
11
0.887113
21
-4.9994
0
LINE
8
BLACK
6
CONTINUOUS
10
0.887113
20
-4.9994
11
0.893722
21
-4.99856
0
LINE
8
BLACK
6
CONTINUOUS
10
0.893722
20
-4.99856
11
0.893735
21
-4.99856
0
LINE
8
BLACK
6
CONTINUOUS
10
0.893735
20
-4.99856
11
0.893759
21
-4.99856
0
LINE
8
BLACK
6
CONTINUOUS
10
0.893759
20
-4.99856
11
0.893783
21
-4.99856
0
LINE
8
BLACK
6
CONTINUOUS
10
0.893783
20
-4.99856
11
0.900843
21
-4.99811
0
LINE
8
BLACK
6
CONTINUOUS
10
0.900843
20
-4.99811
11
0.900857
21
-4.99811
0
LINE
8
BLACK
6
CONTINUOUS
10
0.900857
20
-4.99811
11
0.900881
21
-4.99811
0
LINE
8
BLACK
6
CONTINUOUS
10
0.900881
20
-4.99811
11
0.900905
21
-4.99811
0
LINE
8
BLACK
6
CONTINUOUS
10
0.900905
20
-4.99811
11
1.68413
21
-4.99811
0
LINE
8
BLACK
6
CONTINUOUS
10
1.68413
20
-4.99811
11
1.68415
21
-4.99811
0
LINE
8
BLACK
6
CONTINUOUS
10
0.979047
20
-5.66735
11
0.979135
21
-5.66736
0
LINE
8
BLACK
6
CONTINUOUS
10
0.979135
20
-5.66736
11
0.979138
21
-5.66736
0
LINE
8
BLACK
6
CONTINUOUS
10
0.979138
20
-5.66736
11
0.979142
21
-5.66736
0
LINE
8
BLACK
6
CONTINUOUS
10
0.979142
20
-5.66736
11
0.97923
21
-5.66739
0
LINE
8
BLACK
6
CONTINUOUS
10
0.97923
20
-5.66739
11
0.979318
21
-5.66742
0
LINE
8
BLACK
6
CONTINUOUS
10
0.979318
20
-5.66742
11
0.979322
21
-5.66742
0
LINE
8
BLACK
6
CONTINUOUS
10
0.979322
20
-5.66742
11
0.979325
21
-5.66742
0
LINE
8
BLACK
6
CONTINUOUS
10
0.979325
20
-5.66742
11
0.979404
21
-5.66746
0
LINE
8
BLACK
6
CONTINUOUS
10
0.979404
20
-5.66746
11
0.979487
21
-5.66751
0
LINE
8
BLACK
6
CONTINUOUS
10
0.979487
20
-5.66751
11
0.97949
21
-5.66751
0
LINE
8
BLACK
6
CONTINUOUS
10
0.97949
20
-5.66751
11
0.979493
21
-5.66751
0
LINE
8
BLACK
6
CONTINUOUS
10
0.979493
20
-5.66751
11
0.979565
21
-5.66757
0
LINE
8
BLACK
6
CONTINUOUS
10
0.979565
20
-5.66757
11
0.979635
21
-5.66763
0
LINE
8
BLACK
6
CONTINUOUS
10
0.979635
20
-5.66763
11
0.979638
21
-5.66763
0
LINE
8
BLACK
6
CONTINUOUS
10
0.979638
20
-5.66763
11
0.97964
21
-5.66764
0
LINE
8
BLACK
6
CONTINUOUS
10
0.97964
20
-5.66764
11
0.979699
21
-5.66771
0
LINE
8
BLACK
6
CONTINUOUS
10
0.979699
20
-5.66771
11
0.979757
21
-5.66778
0
LINE
8
BLACK
6
CONTINUOUS
10
0.979757
20
-5.66778
11
0.979758
21
-5.66778
0
LINE
8
BLACK
6
CONTINUOUS
10
0.979758
20
-5.66778
11
0.979761
21
-5.66779
0
LINE
8
BLACK
6
CONTINUOUS
10
0.979761
20
-5.66779
11
0.979803
21
-5.66787
0
LINE
8
BLACK
6
CONTINUOUS
10
0.979803
20
-5.66787
11
0.979847
21
-5.66795
0
LINE
8
BLACK
6
CONTINUOUS
10
0.979847
20
-5.66795
11
0.979848
21
-5.66795
0
LINE
8
BLACK
6
CONTINUOUS
10
0.979848
20
-5.66795
11
0.97985
21
-5.66796
0
LINE
8
BLACK
6
CONTINUOUS
10
0.97985
20
-5.66796
11
0.979876
21
-5.66804
0
LINE
8
BLACK
6
CONTINUOUS
10
0.979876
20
-5.66804
11
0.979903
21
-5.66813
0
LINE
8
BLACK
6
CONTINUOUS
10
0.979903
20
-5.66813
11
0.979903
21
-5.66814
0
LINE
8
BLACK
6
CONTINUOUS
10
0.979903
20
-5.66814
11
0.979904
21
-5.66814
0
LINE
8
BLACK
6
CONTINUOUS
10
0.979904
20
-5.66814
11
0.979912
21
-5.66823
0
LINE
8
BLACK
6
CONTINUOUS
10
0.979912
20
-5.66823
11
0.979921
21
-5.66832
0
LINE
8
BLACK
6
CONTINUOUS
10
0.979921
20
-5.66832
11
0.979921
21
-6.02266
0
LINE
8
BLACK
6
CONTINUOUS
10
0.979921
20
-6.02266
11
0.979921
21
-6.02267
0
LINE
8
BLACK
6
CONTINUOUS
10
0.979921
20
-6.02267
11
0.97991
21
-6.02277
0
LINE
8
BLACK
6
CONTINUOUS
10
0.97991
20
-6.02277
11
0.979901
21
-6.02285
0
LINE
8
BLACK
6
CONTINUOUS
10
0.979901
20
-6.02285
11
0.9799
21
-6.02286
0
LINE
8
BLACK
6
CONTINUOUS
10
0.9799
20
-6.02286
11
0.9799
21
-6.02286
0
LINE
8
BLACK
6
CONTINUOUS
10
0.9799
20
-6.02286
11
0.979872
21
-6.02295
0
LINE
8
BLACK
6
CONTINUOUS
10
0.979872
20
-6.02295
11
0.979844
21
-6.02304
0
LINE
8
BLACK
6
CONTINUOUS
10
0.979844
20
-6.02304
11
0.979843
21
-6.02304
0
LINE
8
BLACK
6
CONTINUOUS
10
0.979843
20
-6.02304
11
0.979842
21
-6.02304
0
LINE
8
BLACK
6
CONTINUOUS
10
0.979842
20
-6.02304
11
0.979798
21
-6.02312
0
LINE
8
BLACK
6
CONTINUOUS
10
0.979798
20
-6.02312
11
0.979753
21
-6.02321
0
LINE
8
BLACK
6
CONTINUOUS
10
0.979753
20
-6.02321
11
0.979751
21
-6.02321
0
LINE
8
BLACK
6
CONTINUOUS
10
0.979751
20
-6.02321
11
0.979749
21
-6.02321
0
LINE
8
BLACK
6
CONTINUOUS
10
0.979749
20
-6.02321
11
0.979689
21
-6.02328
0
LINE
8
BLACK
6
CONTINUOUS
10
0.979689
20
-6.02328
11
0.979631
21
-6.02335
0
LINE
8
BLACK
6
CONTINUOUS
10
0.979631
20
-6.02335
11
0.979628
21
-6.02336
0
LINE
8
BLACK
6
CONTINUOUS
10
0.979628
20
-6.02336
11
0.979626
21
-6.02336
0
LINE
8
BLACK
6
CONTINUOUS
10
0.979626
20
-6.02336
11
0.979553
21
-6.02342
0
LINE
8
BLACK
6
CONTINUOUS
10
0.979553
20
-6.02342
11
0.979482
21
-6.02348
0
LINE
8
BLACK
6
CONTINUOUS
10
0.979482
20
-6.02348
11
0.979479
21
-6.02348
0
LINE
8
BLACK
6
CONTINUOUS
10
0.979479
20
-6.02348
11
0.979476
21
-6.02348
0
LINE
8
BLACK
6
CONTINUOUS
10
0.979476
20
-6.02348
11
0.979395
21
-6.02352
0
LINE
8
BLACK
6
CONTINUOUS
10
0.979395
20
-6.02352
11
0.979312
21
-6.02357
0
LINE
8
BLACK
6
CONTINUOUS
10
0.979312
20
-6.02357
11
0.979309
21
-6.02357
0
LINE
8
BLACK
6
CONTINUOUS
10
0.979309
20
-6.02357
11
0.979306
21
-6.02357
0
LINE
8
BLACK
6
CONTINUOUS
10
0.979306
20
-6.02357
11
0.979218
21
-6.02359
0
LINE
8
BLACK
6
CONTINUOUS
10
0.979218
20
-6.02359
11
0.979128
21
-6.02362
0
LINE
8
BLACK
6
CONTINUOUS
10
0.979128
20
-6.02362
11
0.979125
21
-6.02362
0
LINE
8
BLACK
6
CONTINUOUS
10
0.979125
20
-6.02362
11
0.979121
21
-6.02362
0
LINE
8
BLACK
6
CONTINUOUS
10
0.979121
20
-6.02362
11
0.979031
21
-6.02363
0
LINE
8
BLACK
6
CONTINUOUS
10
0.979031
20
-6.02363
11
0.978937
21
-6.02364
0
LINE
8
BLACK
6
CONTINUOUS
10
0.978937
20
-6.02364
11
0.825984
21
-6.02364
0
LINE
8
BLACK
6
CONTINUOUS
10
0.825984
20
-6.02364
11
0.825984
21
-6.52316
0
LINE
8
BLACK
6
CONTINUOUS
10
0.825984
20
-6.52316
11
0.826408
21
-6.53011
0
LINE
8
BLACK
6
CONTINUOUS
10
0.826408
20
-6.53011
11
0.827218
21
-6.53661
0
LINE
8
BLACK
6
CONTINUOUS
10
0.827218
20
-6.53661
11
0.828387
21
-6.54268
0
LINE
8
BLACK
6
CONTINUOUS
10
0.828387
20
-6.54268
11
0.829888
21
-6.54834
0
LINE
8
BLACK
6
CONTINUOUS
10
0.829888
20
-6.54834
11
0.831694
21
-6.55358
0
LINE
8
BLACK
6
CONTINUOUS
10
0.831694
20
-6.55358
11
0.83378
21
-6.55845
0
LINE
8
BLACK
6
CONTINUOUS
10
0.83378
20
-6.55845
11
0.836118
21
-6.56294
0
LINE
8
BLACK
6
CONTINUOUS
10
0.836118
20
-6.56294
11
0.838682
21
-6.56708
0
LINE
8
BLACK
6
CONTINUOUS
10
0.838682
20
-6.56708
11
0.841448
21
-6.57088
0
LINE
8
BLACK
6
CONTINUOUS
10
0.841448
20
-6.57088
11
0.844389
21
-6.57435
0
LINE
8
BLACK
6
CONTINUOUS
10
0.844389
20
-6.57435
11
0.84748
21
-6.57752
0
LINE
8
BLACK
6
CONTINUOUS
10
0.84748
20
-6.57752
11
0.850696
21
-6.58039
0
LINE
8
BLACK
6
CONTINUOUS
10
0.850696
20
-6.58039
11
0.854009
21
-6.58298
0
LINE
8
BLACK
6
CONTINUOUS
10
0.854009
20
-6.58298
11
0.857397
21
-6.5853
0
LINE
8
BLACK
6
CONTINUOUS
10
0.857397
20
-6.5853
11
0.860831
21
-6.58738
0
LINE
8
BLACK
6
CONTINUOUS
10
0.860831
20
-6.58738
11
0.864286
21
-6.58922
0
LINE
8
BLACK
6
CONTINUOUS
10
0.864286
20
-6.58922
11
0.867737
21
-6.59084
0
LINE
8
BLACK
6
CONTINUOUS
10
0.867737
20
-6.59084
11
0.871156
21
-6.59225
0
LINE
8
BLACK
6
CONTINUOUS
10
0.871156
20
-6.59225
11
0.874517
21
-6.59346
0
LINE
8
BLACK
6
CONTINUOUS
10
0.874517
20
-6.59346
11
0.877795
21
-6.5945
0
LINE
8
BLACK
6
CONTINUOUS
10
0.877795
20
-6.5945
11
0.880962
21
-6.59536
0
LINE
8
BLACK
6
CONTINUOUS
10
0.880962
20
-6.59536
11
0.883991
21
-6.59608
0
LINE
8
BLACK
6
CONTINUOUS
10
0.883991
20
-6.59608
11
0.886856
21
-6.59666
0
LINE
8
BLACK
6
CONTINUOUS
10
0.886856
20
-6.59666
11
0.889533
21
-6.59712
0
LINE
8
BLACK
6
CONTINUOUS
10
0.889533
20
-6.59712
11
0.891991
21
-6.59747
0
LINE
8
BLACK
6
CONTINUOUS
10
0.891991
20
-6.59747
11
0.894205
21
-6.59773
0
LINE
8
BLACK
6
CONTINUOUS
10
0.894205
20
-6.59773
11
0.896145
21
-6.59791
0
LINE
8
BLACK
6
CONTINUOUS
10
0.896145
20
-6.59791
11
0.899123
21
-6.59808
0
LINE
8
BLACK
6
CONTINUOUS
10
0.899123
20
-6.59808
11
0.900912
21
-6.59811
0
LINE
8
BLACK
6
CONTINUOUS
10
0.900912
20
-6.59811
11
1.6841
21
-6.59811
0
LINE
8
BLACK
6
CONTINUOUS
10
1.6841
20
-6.59811
11
1.69088
21
-6.59764
0
LINE
8
BLACK
6
CONTINUOUS
10
1.69088
20
-6.59764
11
1.69723
21
-6.59679
0
LINE
8
BLACK
6
CONTINUOUS
10
1.69723
20
-6.59679
11
1.70318
21
-6.59558
0
LINE
8
BLACK
6
CONTINUOUS
10
1.70318
20
-6.59558
11
1.70872
21
-6.59405
0
LINE
8
BLACK
6
CONTINUOUS
10
1.70872
20
-6.59405
11
1.71388
21
-6.59222
0
LINE
8
BLACK
6
CONTINUOUS
10
1.71388
20
-6.59222
11
1.71868
21
-6.59012
0
LINE
8
BLACK
6
CONTINUOUS
10
1.71868
20
-6.59012
11
1.72311
21
-6.58776
0
LINE
8
BLACK
6
CONTINUOUS
10
1.72311
20
-6.58776
11
1.72721
21
-6.58518
0
LINE
8
BLACK
6
CONTINUOUS
10
1.72721
20
-6.58518
11
1.73098
21
-6.58241
0
LINE
8
BLACK
6
CONTINUOUS
10
1.73098
20
-6.58241
11
1.73445
21
-6.57946
0
LINE
8
BLACK
6
CONTINUOUS
10
1.73445
20
-6.57946
11
1.73761
21
-6.57637
0
LINE
8
BLACK
6
CONTINUOUS
10
1.73761
20
-6.57637
11
1.74049
21
-6.57316
0
LINE
8
BLACK
6
CONTINUOUS
10
1.74049
20
-6.57316
11
1.7431
21
-6.56985
0
LINE
8
BLACK
6
CONTINUOUS
10
1.7431
20
-6.56985
11
1.74546
21
-6.56646
0
LINE
8
BLACK
6
CONTINUOUS
10
1.74546
20
-6.56646
11
1.74757
21
-6.56304
0
LINE
8
BLACK
6
CONTINUOUS
10
1.74757
20
-6.56304
11
1.74945
21
-6.55959
0
LINE
8
BLACK
6
CONTINUOUS
10
1.74945
20
-6.55959
11
1.75112
21
-6.55615
0
LINE
8
BLACK
6
CONTINUOUS
10
1.75112
20
-6.55615
11
1.75258
21
-6.55275
0
LINE
8
BLACK
6
CONTINUOUS
10
1.75258
20
-6.55275
11
1.75385
21
-6.5494
0
LINE
8
BLACK
6
CONTINUOUS
10
1.75385
20
-6.5494
11
1.75494
21
-6.54614
0
LINE
8
BLACK
6
CONTINUOUS
10
1.75494
20
-6.54614
11
1.75587
21
-6.54299
0
LINE
8
BLACK
6
CONTINUOUS
10
1.75587
20
-6.54299
11
1.75665
21
-6.53997
0
LINE
8
BLACK
6
CONTINUOUS
10
1.75665
20
-6.53997
11
1.75729
21
-6.53712
0
LINE
8
BLACK
6
CONTINUOUS
10
1.75729
20
-6.53712
11
1.7578
21
-6.53446
0
LINE
8
BLACK
6
CONTINUOUS
10
1.7578
20
-6.53446
11
1.7582
21
-6.53202
0
LINE
8
BLACK
6
CONTINUOUS
10
1.7582
20
-6.53202
11
1.75851
21
-6.52982
0
LINE
8
BLACK
6
CONTINUOUS
10
1.75851
20
-6.52982
11
1.75889
21
-6.52625
0
LINE
8
BLACK
6
CONTINUOUS
10
1.75889
20
-6.52625
11
1.75903
21
-6.52396
0
LINE
8
BLACK
6
CONTINUOUS
10
1.75903
20
-6.52396
11
1.75906
21
-6.52318
0
LINE
8
BLACK
6
CONTINUOUS
10
1.75906
20
-6.52318
11
1.75906
21
-5.07502
0
LINE
8
BLACK
6
CONTINUOUS
10
1.75906
20
-5.07502
11
1.75884
21
-5.06817
0
LINE
8
BLACK
6
CONTINUOUS
10
1.75884
20
-5.06817
11
1.75821
21
-5.06177
0
LINE
8
BLACK
6
CONTINUOUS
10
1.75821
20
-5.06177
11
1.7572
21
-5.05579
0
LINE
8
BLACK
6
CONTINUOUS
10
1.7572
20
-5.05579
11
1.75583
21
-5.05022
0
LINE
8
BLACK
6
CONTINUOUS
10
1.75583
20
-5.05022
11
1.75414
21
-5.04503
0
LINE
8
BLACK
6
CONTINUOUS
10
1.75414
20
-5.04503
11
1.75214
21
-5.04022
0
LINE
8
BLACK
6
CONTINUOUS
10
1.75214
20
-5.04022
11
1.74987
21
-5.03577
0
LINE
8
BLACK
6
CONTINUOUS
10
1.74987
20
-5.03577
11
1.74736
21
-5.03166
0
LINE
8
BLACK
6
CONTINUOUS
10
1.74736
20
-5.03166
11
1.74463
21
-5.02789
0
LINE
8
BLACK
6
CONTINUOUS
10
1.74463
20
-5.02789
11
1.74171
21
-5.02442
0
LINE
8
BLACK
6
CONTINUOUS
10
1.74171
20
-5.02442
11
1.73862
21
-5.02126
0
LINE
8
BLACK
6
CONTINUOUS
10
1.73862
20
-5.02126
11
1.73539
21
-5.01838
0
LINE
8
BLACK
6
CONTINUOUS
10
1.73539
20
-5.01838
11
1.73205
21
-5.01578
0
LINE
8
BLACK
6
CONTINUOUS
10
1.73205
20
-5.01578
11
1.72863
21
-5.01343
0
LINE
8
BLACK
6
CONTINUOUS
10
1.72863
20
-5.01343
11
1.72515
21
-5.01133
0
LINE
8
BLACK
6
CONTINUOUS
10
1.72515
20
-5.01133
11
1.72165
21
-5.00946
0
LINE
8
BLACK
6
CONTINUOUS
10
1.72165
20
-5.00946
11
1.71814
21
-5.00781
0
LINE
8
BLACK
6
CONTINUOUS
10
1.71814
20
-5.00781
11
1.71465
21
-5.00637
0
LINE
8
BLACK
6
CONTINUOUS
10
1.71465
20
-5.00637
11
1.71122
21
-5.00512
0
LINE
8
BLACK
6
CONTINUOUS
10
1.71122
20
-5.00512
11
1.70787
21
-5.00404
0
LINE
8
BLACK
6
CONTINUOUS
10
1.70787
20
-5.00404
11
1.70463
21
-5.00313
0
LINE
8
BLACK
6
CONTINUOUS
10
1.70463
20
-5.00313
11
1.70152
21
-5.00237
0
LINE
8
BLACK
6
CONTINUOUS
10
1.70152
20
-5.00237
11
1.69858
21
-5.00175
0
LINE
8
BLACK
6
CONTINUOUS
10
1.69858
20
-5.00175
11
1.69583
21
-5.00125
0
LINE
8
BLACK
6
CONTINUOUS
10
1.69583
20
-5.00125
11
1.6933
21
-5.00086
0
LINE
8
BLACK
6
CONTINUOUS
10
1.6933
20
-5.00086
11
1.69103
21
-5.00057
0
LINE
8
BLACK
6
CONTINUOUS
10
1.69103
20
-5.00057
11
1.68903
21
-5.00037
0
LINE
8
BLACK
6
CONTINUOUS
10
1.68903
20
-5.00037
11
1.68596
21
-5.00014
0
LINE
8
BLACK
6
CONTINUOUS
10
1.68596
20
-5.00014
11
1.68412
21
-5.00008
0
LINE
8
BLACK
6
CONTINUOUS
10
1.68412
20
-5.00008
11
0.900936
21
-5.00008
0
LINE
8
BLACK
6
CONTINUOUS
10
0.900936
20
-5.00008
11
0.893937
21
-5.00052
0
LINE
8
BLACK
6
CONTINUOUS
10
0.893937
20
-5.00052
11
0.887392
21
-5.00135
0
LINE
8
BLACK
6
CONTINUOUS
10
0.887392
20
-5.00135
11
0.881286
21
-5.00253
0
LINE
8
BLACK
6
CONTINUOUS
10
0.881286
20
-5.00253
11
0.875602
21
-5.00404
0
LINE
8
BLACK
6
CONTINUOUS
10
0.875602
20
-5.00404
11
0.870327
21
-5.00586
0
LINE
8
BLACK
6
CONTINUOUS
10
0.870327
20
-5.00586
11
0.865443
21
-5.00795
0
LINE
8
BLACK
6
CONTINUOUS
10
0.865443
20
-5.00795
11
0.860935
21
-5.0103
0
LINE
8
BLACK
6
CONTINUOUS
10
0.860935
20
-5.0103
11
0.856785
21
-5.01287
0
LINE
8
BLACK
6
CONTINUOUS
10
0.856785
20
-5.01287
11
0.85298
21
-5.01563
0
LINE
8
BLACK
6
CONTINUOUS
10
0.85298
20
-5.01563
11
0.849502
21
-5.01858
0
LINE
8
BLACK
6
CONTINUOUS
10
0.849502
20
-5.01858
11
0.846337
21
-5.02167
0
LINE
8
BLACK
6
CONTINUOUS
10
0.846337
20
-5.02167
11
0.843469
21
-5.02488
0
LINE
8
BLACK
6
CONTINUOUS
10
0.843469
20
-5.02488
11
0.840882
21
-5.02819
0
LINE
8
BLACK
6
CONTINUOUS
10
0.840882
20
-5.02819
11
0.838564
21
-5.03158
0
LINE
8
BLACK
6
CONTINUOUS
10
0.838564
20
-5.03158
11
0.836498
21
-5.03501
0
LINE
8
BLACK
6
CONTINUOUS
10
0.836498
20
-5.03501
11
0.834671
21
-5.03846
0
LINE
8
BLACK
6
CONTINUOUS
10
0.834671
20
-5.03846
11
0.833068
21
-5.0419
0
LINE
8
BLACK
6
CONTINUOUS
10
0.833068
20
-5.0419
11
0.831674
21
-5.04532
0
LINE
8
BLACK
6
CONTINUOUS
10
0.831674
20
-5.04532
11
0.830475
21
-5.04867
0
LINE
8
BLACK
6
CONTINUOUS
10
0.830475
20
-5.04867
11
0.829457
21
-5.05194
0
LINE
8
BLACK
6
CONTINUOUS
10
0.829457
20
-5.05194
11
0.828605
21
-5.0551
0
LINE
8
BLACK
6
CONTINUOUS
10
0.828605
20
-5.0551
11
0.827904
21
-5.05812
0
LINE
8
BLACK
6
CONTINUOUS
10
0.827904
20
-5.05812
11
0.827339
21
-5.06098
0
LINE
8
BLACK
6
CONTINUOUS
10
0.827339
20
-5.06098
11
0.826897
21
-5.06365
0
LINE
8
BLACK
6
CONTINUOUS
10
0.826897
20
-5.06365
11
0.826563
21
-5.0661
0
LINE
8
BLACK
6
CONTINUOUS
10
0.826563
20
-5.0661
11
0.82632
21
-5.06831
0
LINE
8
BLACK
6
CONTINUOUS
10
0.82632
20
-5.06831
11
0.826156
21
-5.07025
0
LINE
8
BLACK
6
CONTINUOUS
10
0.826156
20
-5.07025
11
0.826002
21
-5.07322
0
LINE
8
BLACK
6
CONTINUOUS
10
0.826002
20
-5.07322
11
0.825984
21
-5.07501
0
LINE
8
BLACK
6
CONTINUOUS
10
0.825984
20
-5.07501
11
0.825984
21
-5.66734
0
LINE
8
BLACK
6
CONTINUOUS
10
0.825984
20
-5.66734
11
0.978937
21
-5.66734
0
LINE
8
BLACK
6
CONTINUOUS
10
0.978937
20
-5.66734
11
0.978944
21
-5.66734
0
LINE
8
BLACK
6
CONTINUOUS
10
0.978944
20
-5.66734
11
0.978951
21
-5.66734
0
LINE
8
BLACK
6
CONTINUOUS
10
0.978951
20
-5.66734
11
0.979047
21
-5.66735
0
LINE
8
BLACK
6
CONTINUOUS
10
1.64063
20
-6.51306
11
1.64372
21
-6.50561
0
LINE
8
BLACK
6
CONTINUOUS
10
1.64372
20
-6.50561
11
1.6482
21
-6.4989
0
LINE
8
BLACK
6
CONTINUOUS
10
1.6482
20
-6.4989
11
1.6539
21
-6.4932
0
LINE
8
BLACK
6
CONTINUOUS
10
1.6539
20
-6.4932
11
1.66061
21
-6.48872
0
LINE
8
BLACK
6
CONTINUOUS
10
1.66061
20
-6.48872
11
1.66806
21
-6.48563
0
LINE
8
BLACK
6
CONTINUOUS
10
1.66806
20
-6.48563
11
1.67597
21
-6.48406
0
LINE
8
BLACK
6
CONTINUOUS
10
1.67597
20
-6.48406
11
1.68403
21
-6.48406
0
LINE
8
BLACK
6
CONTINUOUS
10
1.68403
20
-6.48406
11
1.69194
21
-6.48563
0
LINE
8
BLACK
6
CONTINUOUS
10
1.69194
20
-6.48563
11
1.69939
21
-6.48872
0
LINE
8
BLACK
6
CONTINUOUS
10
1.69939
20
-6.48872
11
1.7061
21
-6.4932
0
LINE
8
BLACK
6
CONTINUOUS
10
1.7061
20
-6.4932
11
1.7118
21
-6.4989
0
LINE
8
BLACK
6
CONTINUOUS
10
1.7118
20
-6.4989
11
1.71628
21
-6.50561
0
LINE
8
BLACK
6
CONTINUOUS
10
1.71628
20
-6.50561
11
1.71937
21
-6.51306
0
LINE
8
BLACK
6
CONTINUOUS
10
1.71937
20
-6.51306
11
1.72094
21
-6.52097
0
LINE
8
BLACK
6
CONTINUOUS
10
1.72094
20
-6.52097
11
1.72094
21
-6.52903
0
LINE
8
BLACK
6
CONTINUOUS
10
1.72094
20
-6.52903
11
1.71937
21
-6.53694
0
LINE
8
BLACK
6
CONTINUOUS
10
1.71937
20
-6.53694
11
1.71628
21
-6.54439
0
LINE
8
BLACK
6
CONTINUOUS
10
1.71628
20
-6.54439
11
1.7118
21
-6.5511
0
LINE
8
BLACK
6
CONTINUOUS
10
1.7118
20
-6.5511
11
1.7061
21
-6.5568
0
LINE
8
BLACK
6
CONTINUOUS
10
1.7061
20
-6.5568
11
1.69939
21
-6.56128
0
LINE
8
BLACK
6
CONTINUOUS
10
1.69939
20
-6.56128
11
1.69194
21
-6.56437
0
LINE
8
BLACK
6
CONTINUOUS
10
1.69194
20
-6.56437
11
1.68403
21
-6.56594
0
LINE
8
BLACK
6
CONTINUOUS
10
1.68403
20
-6.56594
11
1.67597
21
-6.56594
0
LINE
8
BLACK
6
CONTINUOUS
10
1.67597
20
-6.56594
11
1.66806
21
-6.56437
0
LINE
8
BLACK
6
CONTINUOUS
10
1.66806
20
-6.56437
11
1.66061
21
-6.56128
0
LINE
8
BLACK
6
CONTINUOUS
10
1.66061
20
-6.56128
11
1.6539
21
-6.5568
0
LINE
8
BLACK
6
CONTINUOUS
10
1.6539
20
-6.5568
11
1.6482
21
-6.5511
0
LINE
8
BLACK
6
CONTINUOUS
10
1.6482
20
-6.5511
11
1.64372
21
-6.54439
0
LINE
8
BLACK
6
CONTINUOUS
10
1.64372
20
-6.54439
11
1.64063
21
-6.53694
0
LINE
8
BLACK
6
CONTINUOUS
10
1.64063
20
-6.53694
11
1.63906
21
-6.52903
0
LINE
8
BLACK
6
CONTINUOUS
10
1.63906
20
-6.52903
11
1.63906
21
-6.52097
0
LINE
8
BLACK
6
CONTINUOUS
10
1.63906
20
-6.52097
11
1.64063
21
-6.51306
0
LINE
8
BLACK
6
CONTINUOUS
10
1.64327
20
-6.53614
11
1.64615
21
-6.54309
0
LINE
8
BLACK
6
CONTINUOUS
10
1.64615
20
-6.54309
11
1.65033
21
-6.54935
0
LINE
8
BLACK
6
CONTINUOUS
10
1.65033
20
-6.54935
11
1.65565
21
-6.55467
0
LINE
8
BLACK
6
CONTINUOUS
10
1.65565
20
-6.55467
11
1.66191
21
-6.55885
0
LINE
8
BLACK
6
CONTINUOUS
10
1.66191
20
-6.55885
11
1.66886
21
-6.56173
0
LINE
8
BLACK
6
CONTINUOUS
10
1.66886
20
-6.56173
11
1.67624
21
-6.5632
0
LINE
8
BLACK
6
CONTINUOUS
10
1.67624
20
-6.5632
11
1.68376
21
-6.5632
0
LINE
8
BLACK
6
CONTINUOUS
10
1.68376
20
-6.5632
11
1.69114
21
-6.56173
0
LINE
8
BLACK
6
CONTINUOUS
10
1.69114
20
-6.56173
11
1.69809
21
-6.55885
0
LINE
8
BLACK
6
CONTINUOUS
10
1.69809
20
-6.55885
11
1.70435
21
-6.55467
0
LINE
8
BLACK
6
CONTINUOUS
10
1.70435
20
-6.55467
11
1.70967
21
-6.54935
0
LINE
8
BLACK
6
CONTINUOUS
10
1.70967
20
-6.54935
11
1.71385
21
-6.54309
0
LINE
8
BLACK
6
CONTINUOUS
10
1.71385
20
-6.54309
11
1.71673
21
-6.53614
0
LINE
8
BLACK
6
CONTINUOUS
10
1.71673
20
-6.53614
11
1.7182
21
-6.52876
0
LINE
8
BLACK
6
CONTINUOUS
10
1.7182
20
-6.52876
11
1.7182
21
-6.52124
0
LINE
8
BLACK
6
CONTINUOUS
10
1.7182
20
-6.52124
11
1.71673
21
-6.51386
0
LINE
8
BLACK
6
CONTINUOUS
10
1.71673
20
-6.51386
11
1.71385
21
-6.50691
0
LINE
8
BLACK
6
CONTINUOUS
10
1.71385
20
-6.50691
11
1.70967
21
-6.50065
0
LINE
8
BLACK
6
CONTINUOUS
10
1.70967
20
-6.50065
11
1.70435
21
-6.49533
0
LINE
8
BLACK
6
CONTINUOUS
10
1.70435
20
-6.49533
11
1.69809
21
-6.49115
0
LINE
8
BLACK
6
CONTINUOUS
10
1.69809
20
-6.49115
11
1.69114
21
-6.48827
0
LINE
8
BLACK
6
CONTINUOUS
10
1.69114
20
-6.48827
11
1.68376
21
-6.4868
0
LINE
8
BLACK
6
CONTINUOUS
10
1.68376
20
-6.4868
11
1.67624
21
-6.4868
0
LINE
8
BLACK
6
CONTINUOUS
10
1.67624
20
-6.4868
11
1.66886
21
-6.48827
0
LINE
8
BLACK
6
CONTINUOUS
10
1.66886
20
-6.48827
11
1.66191
21
-6.49115
0
LINE
8
BLACK
6
CONTINUOUS
10
1.66191
20
-6.49115
11
1.65565
21
-6.49533
0
LINE
8
BLACK
6
CONTINUOUS
10
1.65565
20
-6.49533
11
1.65033
21
-6.50065
0
LINE
8
BLACK
6
CONTINUOUS
10
1.65033
20
-6.50065
11
1.64615
21
-6.50691
0
LINE
8
BLACK
6
CONTINUOUS
10
1.64615
20
-6.50691
11
1.64327
21
-6.51386
0
LINE
8
BLACK
6
CONTINUOUS
10
1.64327
20
-6.51386
11
1.6418
21
-6.52124
0
LINE
8
BLACK
6
CONTINUOUS
10
1.6418
20
-6.52124
11
1.6418
21
-6.52876
0
LINE
8
BLACK
6
CONTINUOUS
10
1.6418
20
-6.52876
11
1.64327
21
-6.53614
0
LINE
8
BLACK
6
CONTINUOUS
10
0.86063
20
-6.51306
11
0.863716
21
-6.50561
0
LINE
8
BLACK
6
CONTINUOUS
10
0.863716
20
-6.50561
11
0.868197
21
-6.4989
0
LINE
8
BLACK
6
CONTINUOUS
10
0.868197
20
-6.4989
11
0.8739
21
-6.4932
0
LINE
8
BLACK
6
CONTINUOUS
10
0.8739
20
-6.4932
11
0.880606
21
-6.48872
0
LINE
8
BLACK
6
CONTINUOUS
10
0.880606
20
-6.48872
11
0.888057
21
-6.48563
0
LINE
8
BLACK
6
CONTINUOUS
10
0.888057
20
-6.48563
11
0.895967
21
-6.48406
0
LINE
8
BLACK
6
CONTINUOUS
10
0.895967
20
-6.48406
11
0.904033
21
-6.48406
0
LINE
8
BLACK
6
CONTINUOUS
10
0.904033
20
-6.48406
11
0.911943
21
-6.48563
0
LINE
8
BLACK
6
CONTINUOUS
10
0.911943
20
-6.48563
11
0.919394
21
-6.48872
0
LINE
8
BLACK
6
CONTINUOUS
10
0.919394
20
-6.48872
11
0.9261
21
-6.4932
0
LINE
8
BLACK
6
CONTINUOUS
10
0.9261
20
-6.4932
11
0.931803
21
-6.4989
0
LINE
8
BLACK
6
CONTINUOUS
10
0.931803
20
-6.4989
11
0.936284
21
-6.50561
0
LINE
8
BLACK
6
CONTINUOUS
10
0.936284
20
-6.50561
11
0.93937
21
-6.51306
0
LINE
8
BLACK
6
CONTINUOUS
10
0.93937
20
-6.51306
11
0.940944
21
-6.52097
0
LINE
8
BLACK
6
CONTINUOUS
10
0.940944
20
-6.52097
11
0.940944
21
-6.52903
0
LINE
8
BLACK
6
CONTINUOUS
10
0.940944
20
-6.52903
11
0.93937
21
-6.53694
0
LINE
8
BLACK
6
CONTINUOUS
10
0.93937
20
-6.53694
11
0.936284
21
-6.54439
0
LINE
8
BLACK
6
CONTINUOUS
10
0.936284
20
-6.54439
11
0.931803
21
-6.5511
0
LINE
8
BLACK
6
CONTINUOUS
10
0.931803
20
-6.5511
11
0.9261
21
-6.5568
0
LINE
8
BLACK
6
CONTINUOUS
10
0.9261
20
-6.5568
11
0.919394
21
-6.56128
0
LINE
8
BLACK
6
CONTINUOUS
10
0.919394
20
-6.56128
11
0.911943
21
-6.56437
0
LINE
8
BLACK
6
CONTINUOUS
10
0.911943
20
-6.56437
11
0.904033
21
-6.56594
0
LINE
8
BLACK
6
CONTINUOUS
10
0.904033
20
-6.56594
11
0.895967
21
-6.56594
0
LINE
8
BLACK
6
CONTINUOUS
10
0.895967
20
-6.56594
11
0.888057
21
-6.56437
0
LINE
8
BLACK
6
CONTINUOUS
10
0.888057
20
-6.56437
11
0.880606
21
-6.56128
0
LINE
8
BLACK
6
CONTINUOUS
10
0.880606
20
-6.56128
11
0.8739
21
-6.5568
0
LINE
8
BLACK
6
CONTINUOUS
10
0.8739
20
-6.5568
11
0.868197
21
-6.5511
0
LINE
8
BLACK
6
CONTINUOUS
10
0.868197
20
-6.5511
11
0.863716
21
-6.54439
0
LINE
8
BLACK
6
CONTINUOUS
10
0.863716
20
-6.54439
11
0.86063
21
-6.53694
0
LINE
8
BLACK
6
CONTINUOUS
10
0.86063
20
-6.53694
11
0.859056
21
-6.52903
0
LINE
8
BLACK
6
CONTINUOUS
10
0.859056
20
-6.52903
11
0.859056
21
-6.52097
0
LINE
8
BLACK
6
CONTINUOUS
10
0.859056
20
-6.52097
11
0.86063
21
-6.51306
0
LINE
8
BLACK
6
CONTINUOUS
10
0.863267
20
-6.53614
11
0.866147
21
-6.54309
0
LINE
8
BLACK
6
CONTINUOUS
10
0.866147
20
-6.54309
11
0.870327
21
-6.54935
0
LINE
8
BLACK
6
CONTINUOUS
10
0.870327
20
-6.54935
11
0.875648
21
-6.55467
0
LINE
8
BLACK
6
CONTINUOUS
10
0.875648
20
-6.55467
11
0.881905
21
-6.55885
0
LINE
8
BLACK
6
CONTINUOUS
10
0.881905
20
-6.55885
11
0.888857
21
-6.56173
0
LINE
8
BLACK
6
CONTINUOUS
10
0.888857
20
-6.56173
11
0.896238
21
-6.5632
0
LINE
8
BLACK
6
CONTINUOUS
10
0.896238
20
-6.5632
11
0.903762
21
-6.5632
0
LINE
8
BLACK
6
CONTINUOUS
10
0.903762
20
-6.5632
11
0.911143
21
-6.56173
0
LINE
8
BLACK
6
CONTINUOUS
10
0.911143
20
-6.56173
11
0.918095
21
-6.55885
0
LINE
8
BLACK
6
CONTINUOUS
10
0.918095
20
-6.55885
11
0.924352
21
-6.55467
0
LINE
8
BLACK
6
CONTINUOUS
10
0.924352
20
-6.55467
11
0.929673
21
-6.54935
0
LINE
8
BLACK
6
CONTINUOUS
10
0.929673
20
-6.54935
11
0.933853
21
-6.54309
0
LINE
8
BLACK
6
CONTINUOUS
10
0.933853
20
-6.54309
11
0.936733
21
-6.53614
0
LINE
8
BLACK
6
CONTINUOUS
10
0.936733
20
-6.53614
11
0.938201
21
-6.52876
0
LINE
8
BLACK
6
CONTINUOUS
10
0.938201
20
-6.52876
11
0.938201
21
-6.52124
0
LINE
8
BLACK
6
CONTINUOUS
10
0.938201
20
-6.52124
11
0.936733
21
-6.51386
0
LINE
8
BLACK
6
CONTINUOUS
10
0.936733
20
-6.51386
11
0.933853
21
-6.50691
0
LINE
8
BLACK
6
CONTINUOUS
10
0.933853
20
-6.50691
11
0.929673
21
-6.50065
0
LINE
8
BLACK
6
CONTINUOUS
10
0.929673
20
-6.50065
11
0.924352
21
-6.49533
0
LINE
8
BLACK
6
CONTINUOUS
10
0.924352
20
-6.49533
11
0.918095
21
-6.49115
0
LINE
8
BLACK
6
CONTINUOUS
10
0.918095
20
-6.49115
11
0.911143
21
-6.48827
0
LINE
8
BLACK
6
CONTINUOUS
10
0.911143
20
-6.48827
11
0.903762
21
-6.4868
0
LINE
8
BLACK
6
CONTINUOUS
10
0.903762
20
-6.4868
11
0.896238
21
-6.4868
0
LINE
8
BLACK
6
CONTINUOUS
10
0.896238
20
-6.4868
11
0.888857
21
-6.48827
0
LINE
8
BLACK
6
CONTINUOUS
10
0.888857
20
-6.48827
11
0.881905
21
-6.49115
0
LINE
8
BLACK
6
CONTINUOUS
10
0.881905
20
-6.49115
11
0.875648
21
-6.49533
0
LINE
8
BLACK
6
CONTINUOUS
10
0.875648
20
-6.49533
11
0.870327
21
-6.50065
0
LINE
8
BLACK
6
CONTINUOUS
10
0.870327
20
-6.50065
11
0.866147
21
-6.50691
0
LINE
8
BLACK
6
CONTINUOUS
10
0.866147
20
-6.50691
11
0.863267
21
-6.51386
0
LINE
8
BLACK
6
CONTINUOUS
10
0.863267
20
-6.51386
11
0.861799
21
-6.52124
0
LINE
8
BLACK
6
CONTINUOUS
10
0.861799
20
-6.52124
11
0.861799
21
-6.52876
0
LINE
8
BLACK
6
CONTINUOUS
10
0.861799
20
-6.52876
11
0.863267
21
-6.53614
0
LINE
8
BLACK
6
CONTINUOUS
10
0.86063
20
-5.06306
11
0.863716
21
-5.05561
0
LINE
8
BLACK
6
CONTINUOUS
10
0.863716
20
-5.05561
11
0.868197
21
-5.0489
0
LINE
8
BLACK
6
CONTINUOUS
10
0.868197
20
-5.0489
11
0.8739
21
-5.0432
0
LINE
8
BLACK
6
CONTINUOUS
10
0.8739
20
-5.0432
11
0.880606
21
-5.03872
0
LINE
8
BLACK
6
CONTINUOUS
10
0.880606
20
-5.03872
11
0.888057
21
-5.03563
0
LINE
8
BLACK
6
CONTINUOUS
10
0.888057
20
-5.03563
11
0.895967
21
-5.03406
0
LINE
8
BLACK
6
CONTINUOUS
10
0.895967
20
-5.03406
11
0.904033
21
-5.03406
0
LINE
8
BLACK
6
CONTINUOUS
10
0.904033
20
-5.03406
11
0.911943
21
-5.03563
0
LINE
8
BLACK
6
CONTINUOUS
10
0.911943
20
-5.03563
11
0.919394
21
-5.03872
0
LINE
8
BLACK
6
CONTINUOUS
10
0.919394
20
-5.03872
11
0.9261
21
-5.0432
0
LINE
8
BLACK
6
CONTINUOUS
10
0.9261
20
-5.0432
11
0.931803
21
-5.0489
0
LINE
8
BLACK
6
CONTINUOUS
10
0.931803
20
-5.0489
11
0.936284
21
-5.05561
0
LINE
8
BLACK
6
CONTINUOUS
10
0.936284
20
-5.05561
11
0.93937
21
-5.06306
0
LINE
8
BLACK
6
CONTINUOUS
10
0.93937
20
-5.06306
11
0.940944
21
-5.07097
0
LINE
8
BLACK
6
CONTINUOUS
10
0.940944
20
-5.07097
11
0.940944
21
-5.07903
0
LINE
8
BLACK
6
CONTINUOUS
10
0.940944
20
-5.07903
11
0.93937
21
-5.08694
0
LINE
8
BLACK
6
CONTINUOUS
10
0.93937
20
-5.08694
11
0.936284
21
-5.09439
0
LINE
8
BLACK
6
CONTINUOUS
10
0.936284
20
-5.09439
11
0.931803
21
-5.1011
0
LINE
8
BLACK
6
CONTINUOUS
10
0.931803
20
-5.1011
11
0.9261
21
-5.1068
0
LINE
8
BLACK
6
CONTINUOUS
10
0.9261
20
-5.1068
11
0.919394
21
-5.11128
0
LINE
8
BLACK
6
CONTINUOUS
10
0.919394
20
-5.11128
11
0.911943
21
-5.11437
0
LINE
8
BLACK
6
CONTINUOUS
10
0.911943
20
-5.11437
11
0.904033
21
-5.11594
0
LINE
8
BLACK
6
CONTINUOUS
10
0.904033
20
-5.11594
11
0.895967
21
-5.11594
0
LINE
8
BLACK
6
CONTINUOUS
10
0.895967
20
-5.11594
11
0.888057
21
-5.11437
0
LINE
8
BLACK
6
CONTINUOUS
10
0.888057
20
-5.11437
11
0.880606
21
-5.11128
0
LINE
8
BLACK
6
CONTINUOUS
10
0.880606
20
-5.11128
11
0.8739
21
-5.1068
0
LINE
8
BLACK
6
CONTINUOUS
10
0.8739
20
-5.1068
11
0.868197
21
-5.1011
0
LINE
8
BLACK
6
CONTINUOUS
10
0.868197
20
-5.1011
11
0.863716
21
-5.09439
0
LINE
8
BLACK
6
CONTINUOUS
10
0.863716
20
-5.09439
11
0.86063
21
-5.08694
0
LINE
8
BLACK
6
CONTINUOUS
10
0.86063
20
-5.08694
11
0.859056
21
-5.07903
0
LINE
8
BLACK
6
CONTINUOUS
10
0.859056
20
-5.07903
11
0.859056
21
-5.07097
0
LINE
8
BLACK
6
CONTINUOUS
10
0.859056
20
-5.07097
11
0.86063
21
-5.06306
0
LINE
8
BLACK
6
CONTINUOUS
10
0.863267
20
-5.08614
11
0.866147
21
-5.09309
0
LINE
8
BLACK
6
CONTINUOUS
10
0.866147
20
-5.09309
11
0.870327
21
-5.09935
0
LINE
8
BLACK
6
CONTINUOUS
10
0.870327
20
-5.09935
11
0.875648
21
-5.10467
0
LINE
8
BLACK
6
CONTINUOUS
10
0.875648
20
-5.10467
11
0.881905
21
-5.10885
0
LINE
8
BLACK
6
CONTINUOUS
10
0.881905
20
-5.10885
11
0.888857
21
-5.11173
0
LINE
8
BLACK
6
CONTINUOUS
10
0.888857
20
-5.11173
11
0.896238
21
-5.1132
0
LINE
8
BLACK
6
CONTINUOUS
10
0.896238
20
-5.1132
11
0.903762
21
-5.1132
0
LINE
8
BLACK
6
CONTINUOUS
10
0.903762
20
-5.1132
11
0.911143
21
-5.11173
0
LINE
8
BLACK
6
CONTINUOUS
10
0.911143
20
-5.11173
11
0.918095
21
-5.10885
0
LINE
8
BLACK
6
CONTINUOUS
10
0.918095
20
-5.10885
11
0.924352
21
-5.10467
0
LINE
8
BLACK
6
CONTINUOUS
10
0.924352
20
-5.10467
11
0.929673
21
-5.09935
0
LINE
8
BLACK
6
CONTINUOUS
10
0.929673
20
-5.09935
11
0.933853
21
-5.09309
0
LINE
8
BLACK
6
CONTINUOUS
10
0.933853
20
-5.09309
11
0.936733
21
-5.08614
0
LINE
8
BLACK
6
CONTINUOUS
10
0.936733
20
-5.08614
11
0.938201
21
-5.07876
0
LINE
8
BLACK
6
CONTINUOUS
10
0.938201
20
-5.07876
11
0.938201
21
-5.07124
0
LINE
8
BLACK
6
CONTINUOUS
10
0.938201
20
-5.07124
11
0.936733
21
-5.06386
0
LINE
8
BLACK
6
CONTINUOUS
10
0.936733
20
-5.06386
11
0.933853
21
-5.05691
0
LINE
8
BLACK
6
CONTINUOUS
10
0.933853
20
-5.05691
11
0.929673
21
-5.05065
0
LINE
8
BLACK
6
CONTINUOUS
10
0.929673
20
-5.05065
11
0.924352
21
-5.04533
0
LINE
8
BLACK
6
CONTINUOUS
10
0.924352
20
-5.04533
11
0.918095
21
-5.04115
0
LINE
8
BLACK
6
CONTINUOUS
10
0.918095
20
-5.04115
11
0.911143
21
-5.03827
0
LINE
8
BLACK
6
CONTINUOUS
10
0.911143
20
-5.03827
11
0.903762
21
-5.0368
0
LINE
8
BLACK
6
CONTINUOUS
10
0.903762
20
-5.0368
11
0.896238
21
-5.0368
0
LINE
8
BLACK
6
CONTINUOUS
10
0.896238
20
-5.0368
11
0.888857
21
-5.03827
0
LINE
8
BLACK
6
CONTINUOUS
10
0.888857
20
-5.03827
11
0.881905
21
-5.04115
0
LINE
8
BLACK
6
CONTINUOUS
10
0.881905
20
-5.04115
11
0.875648
21
-5.04533
0
LINE
8
BLACK
6
CONTINUOUS
10
0.875648
20
-5.04533
11
0.870327
21
-5.05065
0
LINE
8
BLACK
6
CONTINUOUS
10
0.870327
20
-5.05065
11
0.866147
21
-5.05691
0
LINE
8
BLACK
6
CONTINUOUS
10
0.866147
20
-5.05691
11
0.863267
21
-5.06386
0
LINE
8
BLACK
6
CONTINUOUS
10
0.863267
20
-5.06386
11
0.861799
21
-5.07124
0
LINE
8
BLACK
6
CONTINUOUS
10
0.861799
20
-5.07124
11
0.861799
21
-5.07876
0
LINE
8
BLACK
6
CONTINUOUS
10
0.861799
20
-5.07876
11
0.863267
21
-5.08614
  0
ENDSEC
  0
EOF
