<svg id="レイヤー_1" data-name="レイヤー 1" xmlns="http://www.w3.org/2000/svg" viewBox="0 0 286.3417 115.3417"><defs><style>.cls-1{fill-opacity:0;stroke:#000;stroke-linecap:round;stroke-linejoin:round;stroke-width:0.1417px;}</style></defs><circle class="cls-1" cx="280.8709" cy="4.6709" r="2.8"/><circle class="cls-1" cx="280.8709" cy="109.8709" r="2.8"/><circle class="cls-1" cx="5.4708" cy="109.8709" r="2.8"/><circle class="cls-1" cx="5.4708" cy="5.4709" r="2.8"/><path class="cls-1" d="M276.4,348.9V248.1" transform="translate(-276.3291 -240.8291)"/><path class="cls-1" d="M555.4,356.1H283.6" transform="translate(-276.3291 -240.8291)"/><path class="cls-1" d="M562.6,248.1V348.9" transform="translate(-276.3291 -240.8291)"/><path class="cls-1" d="M283.6,240.9H555.4" transform="translate(-276.3291 -240.8291)"/><path class="cls-1" d="M555.4,356.1a7.17,7.17,0,0,0,7.2-7.2" transform="translate(-276.3291 -240.8291)"/><path class="cls-1" d="M276.4,348.9a7.17,7.17,0,0,0,7.2,7.2" transform="translate(-276.3291 -240.8291)"/><path class="cls-1" d="M562.6,248.1a7.17,7.17,0,0,0-7.2-7.2h0" transform="translate(-276.3291 -240.8291)"/><path class="cls-1" d="M283.6,240.9a7.17,7.17,0,0,0-7.2,7.2h0" transform="translate(-276.3291 -240.8291)"/></svg>