  0
SECTION
  2
HEADER
  9
$ANGBASE
  50
0.0
  9
$ANGDIR
  70
1
  9
$MEASUREMENT
  70
0
  0
ENDSEC
  0
SECTION
  2
TABLES
  0
TABLE
  2
LTYPE
  70
4
  0
LTYPE
  5
40F
  2
CONTINUOUS
  70
0
  3
Solid line
  72
65
  73
0
  40
0.0
  0
LTYPE
  5
410
  2
DASHDOT
 70
0
  3
Dash Dot ____ _ ____ _
 72
65
 73
4
 40
2.0
 49
1.25
 49
-0.25
 49
0.25
 49
-0.25
  0
LTYPE
  5
411
  2
DASHED
 70
0
  3
Dashed __ __ __ __ __
 72
65
 73
2
 40
0.75
 49
0.5
 49
-0.25
  0
LTYPE
  5
43B
  2
DOTTED
 70
0
  3
Dotted .  .  .  .
 72
65
 73
2
 40
0.2
 49
0.0
 49
-0.2
  0
ENDTAB
  0
TABLE
  2
STYLE
  70
4
  0
STYLE
  2
KICAD
  70
0
  40
0
  41
1
  42
1
  50
0
  71
0
  3
isocp.shx
  0
STYLE
  2
KICADB
  70
0
  40
0
  41
1
  42
1
  50
0
  71
0
  3
isocp.shx
  0
STYLE
  2
KICADI
  70
0
  40
0
  41
1
  42
1
  50
15
  71
0
  3
isocp.shx
  0
STYLE
  2
KICADBI
  70
0
  40
0
  41
1
  42
1
  50
15
  71
0
  3
isocp.shx
  0
ENDTAB
  0
TABLE
  2
LAYER
  70
1
  0
LAYER
  2
BLACK
  70
0
  62
7
  6
CONTINUOUS
  0
ENDTAB
  0
ENDSEC
  0
SECTION
  2
ENTITIES
0
LINE
8
BLACK
6
CONTINUOUS
10
0.924905
20
-6.60098
11
0.924904
21
-6.60098
0
LINE
8
BLACK
6
CONTINUOUS
10
0.924904
20
-6.60098
11
0.905481
21
-6.59908
0
LINE
8
BLACK
6
CONTINUOUS
10
0.905481
20
-6.59908
11
0.905467
21
-6.59907
0
LINE
8
BLACK
6
CONTINUOUS
10
0.905467
20
-6.59907
11
0.905378
21
-6.59905
0
LINE
8
BLACK
6
CONTINUOUS
10
0.905378
20
-6.59905
11
0.905292
21
-6.59904
0
LINE
8
BLACK
6
CONTINUOUS
10
0.905292
20
-6.59904
11
0.886608
21
-6.5934
0
LINE
8
BLACK
6
CONTINUOUS
10
0.886608
20
-6.5934
11
0.886595
21
-6.59339
0
LINE
8
BLACK
6
CONTINUOUS
10
0.886595
20
-6.59339
11
0.886513
21
-6.59336
0
LINE
8
BLACK
6
CONTINUOUS
10
0.886513
20
-6.59336
11
0.886431
21
-6.59332
0
LINE
8
BLACK
6
CONTINUOUS
10
0.886431
20
-6.59332
11
0.869199
21
-6.58416
0
LINE
8
BLACK
6
CONTINUOUS
10
0.869199
20
-6.58416
11
0.869187
21
-6.58415
0
LINE
8
BLACK
6
CONTINUOUS
10
0.869187
20
-6.58415
11
0.869113
21
-6.5841
0
LINE
8
BLACK
6
CONTINUOUS
10
0.869113
20
-6.5841
11
0.869039
21
-6.58405
0
LINE
8
BLACK
6
CONTINUOUS
10
0.869039
20
-6.58405
11
0.853914
21
-6.57172
0
LINE
8
BLACK
6
CONTINUOUS
10
0.853914
20
-6.57172
11
0.853904
21
-6.57171
0
LINE
8
BLACK
6
CONTINUOUS
10
0.853904
20
-6.57171
11
0.853842
21
-6.57165
0
LINE
8
BLACK
6
CONTINUOUS
10
0.853842
20
-6.57165
11
0.853778
21
-6.57158
0
LINE
8
BLACK
6
CONTINUOUS
10
0.853778
20
-6.57158
11
0.841338
21
-6.55655
0
LINE
8
BLACK
6
CONTINUOUS
10
0.841338
20
-6.55655
11
0.841329
21
-6.55654
0
LINE
8
BLACK
6
CONTINUOUS
10
0.841329
20
-6.55654
11
0.841281
21
-6.55646
0
LINE
8
BLACK
6
CONTINUOUS
10
0.841281
20
-6.55646
11
0.84123
21
-6.55639
0
LINE
8
BLACK
6
CONTINUOUS
10
0.84123
20
-6.55639
11
0.831948
21
-6.53922
0
LINE
8
BLACK
6
CONTINUOUS
10
0.831948
20
-6.53922
11
0.831941
21
-6.53921
0
LINE
8
BLACK
6
CONTINUOUS
10
0.831941
20
-6.53921
11
0.831908
21
-6.53912
0
LINE
8
BLACK
6
CONTINUOUS
10
0.831908
20
-6.53912
11
0.831873
21
-6.53904
0
LINE
8
BLACK
6
CONTINUOUS
10
0.831873
20
-6.53904
11
0.826102
21
-6.5204
0
LINE
8
BLACK
6
CONTINUOUS
10
0.826102
20
-6.5204
11
0.826098
21
-6.52039
0
LINE
8
BLACK
6
CONTINUOUS
10
0.826098
20
-6.52039
11
0.826082
21
-6.5203
0
LINE
8
BLACK
6
CONTINUOUS
10
0.826082
20
-6.5203
11
0.826064
21
-6.52021
0
LINE
8
BLACK
6
CONTINUOUS
10
0.826064
20
-6.52021
11
0.824024
21
-6.5008
0
LINE
8
BLACK
6
CONTINUOUS
10
0.824024
20
-6.5008
11
0.824022
21
-6.50079
0
LINE
8
BLACK
6
CONTINUOUS
10
0.824022
20
-6.50079
11
0.824023
21
-6.50074
0
LINE
8
BLACK
6
CONTINUOUS
10
0.824023
20
-6.50074
11
0.824018
21
-6.5007
0
LINE
8
BLACK
6
CONTINUOUS
10
0.824018
20
-6.5007
11
0.824016
21
-6.50005
0
LINE
8
BLACK
6
CONTINUOUS
10
0.824016
20
-6.50005
11
0.824016
21
-6.50005
0
LINE
8
BLACK
6
CONTINUOUS
10
0.824016
20
-6.50005
11
0.824016
21
-5.09995
0
LINE
8
BLACK
6
CONTINUOUS
10
0.824016
20
-5.09995
11
0.82402
21
-5.0999
0
LINE
8
BLACK
6
CONTINUOUS
10
0.82402
20
-5.0999
11
0.82402
21
-5.0999
0
LINE
8
BLACK
6
CONTINUOUS
10
0.82402
20
-5.0999
11
0.825925
21
-5.08048
0
LINE
8
BLACK
6
CONTINUOUS
10
0.825925
20
-5.08048
11
0.825926
21
-5.08047
0
LINE
8
BLACK
6
CONTINUOUS
10
0.825926
20
-5.08047
11
0.825945
21
-5.08038
0
LINE
8
BLACK
6
CONTINUOUS
10
0.825945
20
-5.08038
11
0.825962
21
-5.08029
0
LINE
8
BLACK
6
CONTINUOUS
10
0.825962
20
-5.08029
11
0.831603
21
-5.06161
0
LINE
8
BLACK
6
CONTINUOUS
10
0.831603
20
-5.06161
11
0.831607
21
-5.0616
0
LINE
8
BLACK
6
CONTINUOUS
10
0.831607
20
-5.0616
11
0.831643
21
-5.06151
0
LINE
8
BLACK
6
CONTINUOUS
10
0.831643
20
-5.06151
11
0.831676
21
-5.06143
0
LINE
8
BLACK
6
CONTINUOUS
10
0.831676
20
-5.06143
11
0.840839
21
-5.0442
0
LINE
8
BLACK
6
CONTINUOUS
10
0.840839
20
-5.0442
11
0.840839
21
-5.0442
0
LINE
8
BLACK
6
CONTINUOUS
10
0.840839
20
-5.0442
11
0.840839
21
-5.0442
0
LINE
8
BLACK
6
CONTINUOUS
10
0.840839
20
-5.0442
11
0.840845
21
-5.04419
0
LINE
8
BLACK
6
CONTINUOUS
10
0.840845
20
-5.04419
11
0.840895
21
-5.04411
0
LINE
8
BLACK
6
CONTINUOUS
10
0.840895
20
-5.04411
11
0.840945
21
-5.04404
0
LINE
8
BLACK
6
CONTINUOUS
10
0.840945
20
-5.04404
11
0.85328
21
-5.02891
0
LINE
8
BLACK
6
CONTINUOUS
10
0.85328
20
-5.02891
11
0.85328
21
-5.02891
0
LINE
8
BLACK
6
CONTINUOUS
10
0.85328
20
-5.02891
11
0.85328
21
-5.02891
0
LINE
8
BLACK
6
CONTINUOUS
10
0.85328
20
-5.02891
11
0.853289
21
-5.0289
0
LINE
8
BLACK
6
CONTINUOUS
10
0.853289
20
-5.0289
11
0.853352
21
-5.02884
0
LINE
8
BLACK
6
CONTINUOUS
10
0.853352
20
-5.02884
11
0.853416
21
-5.02878
0
LINE
8
BLACK
6
CONTINUOUS
10
0.853416
20
-5.02878
11
0.868453
21
-5.01634
0
LINE
8
BLACK
6
CONTINUOUS
10
0.868453
20
-5.01634
11
0.868464
21
-5.01633
0
LINE
8
BLACK
6
CONTINUOUS
10
0.868464
20
-5.01633
11
0.868538
21
-5.01628
0
LINE
8
BLACK
6
CONTINUOUS
10
0.868538
20
-5.01628
11
0.868613
21
-5.01623
0
LINE
8
BLACK
6
CONTINUOUS
10
0.868613
20
-5.01623
11
0.88578
21
-5.00695
0
LINE
8
BLACK
6
CONTINUOUS
10
0.88578
20
-5.00695
11
0.88578
21
-5.00695
0
LINE
8
BLACK
6
CONTINUOUS
10
0.88578
20
-5.00695
11
0.88578
21
-5.00695
0
LINE
8
BLACK
6
CONTINUOUS
10
0.88578
20
-5.00695
11
0.885792
21
-5.00694
0
LINE
8
BLACK
6
CONTINUOUS
10
0.885792
20
-5.00694
11
0.885876
21
-5.00691
0
LINE
8
BLACK
6
CONTINUOUS
10
0.885876
20
-5.00691
11
0.885957
21
-5.00687
0
LINE
8
BLACK
6
CONTINUOUS
10
0.885957
20
-5.00687
11
0.904601
21
-5.0011
0
LINE
8
BLACK
6
CONTINUOUS
10
0.904601
20
-5.0011
11
0.904601
21
-5.0011
0
LINE
8
BLACK
6
CONTINUOUS
10
0.904601
20
-5.0011
11
0.904614
21
-5.0011
0
LINE
8
BLACK
6
CONTINUOUS
10
0.904614
20
-5.0011
11
0.904703
21
-5.00108
0
LINE
8
BLACK
6
CONTINUOUS
10
0.904703
20
-5.00108
11
0.904789
21
-5.00106
0
LINE
8
BLACK
6
CONTINUOUS
10
0.904789
20
-5.00106
11
0.924199
21
-4.99902
0
LINE
8
BLACK
6
CONTINUOUS
10
0.924199
20
-4.99902
11
0.924213
21
-4.99902
0
LINE
8
BLACK
6
CONTINUOUS
10
0.924213
20
-4.99902
11
0.924256
21
-4.99902
0
LINE
8
BLACK
6
CONTINUOUS
10
0.924256
20
-4.99902
11
0.924298
21
-4.99902
0
LINE
8
BLACK
6
CONTINUOUS
10
0.924298
20
-4.99902
11
0.92495
21
-4.99902
0
LINE
8
BLACK
6
CONTINUOUS
10
0.92495
20
-4.99902
11
0.924952
21
-4.99902
0
LINE
8
BLACK
6
CONTINUOUS
10
0.924952
20
-4.99902
11
4.70005
21
-4.99902
0
LINE
8
BLACK
6
CONTINUOUS
10
4.70005
20
-4.99902
11
4.7001
21
-4.99902
0
LINE
8
BLACK
6
CONTINUOUS
10
4.7001
20
-4.99902
11
4.7001
21
-4.99902
0
LINE
8
BLACK
6
CONTINUOUS
10
4.7001
20
-4.99902
11
4.71952
21
-5.00092
0
LINE
8
BLACK
6
CONTINUOUS
10
4.71952
20
-5.00092
11
4.71953
21
-5.00093
0
LINE
8
BLACK
6
CONTINUOUS
10
4.71953
20
-5.00093
11
4.71962
21
-5.00095
0
LINE
8
BLACK
6
CONTINUOUS
10
4.71962
20
-5.00095
11
4.71971
21
-5.00096
0
LINE
8
BLACK
6
CONTINUOUS
10
4.71971
20
-5.00096
11
4.73839
21
-5.0066
0
LINE
8
BLACK
6
CONTINUOUS
10
4.73839
20
-5.0066
11
4.7384
21
-5.00661
0
LINE
8
BLACK
6
CONTINUOUS
10
4.7384
20
-5.00661
11
4.73849
21
-5.00664
0
LINE
8
BLACK
6
CONTINUOUS
10
4.73849
20
-5.00664
11
4.73857
21
-5.00668
0
LINE
8
BLACK
6
CONTINUOUS
10
4.73857
20
-5.00668
11
4.7558
21
-5.01584
0
LINE
8
BLACK
6
CONTINUOUS
10
4.7558
20
-5.01584
11
4.7558
21
-5.01584
0
LINE
8
BLACK
6
CONTINUOUS
10
4.7558
20
-5.01584
11
4.7558
21
-5.01584
0
LINE
8
BLACK
6
CONTINUOUS
10
4.7558
20
-5.01584
11
4.75581
21
-5.01585
0
LINE
8
BLACK
6
CONTINUOUS
10
4.75581
20
-5.01585
11
4.75589
21
-5.0159
0
LINE
8
BLACK
6
CONTINUOUS
10
4.75589
20
-5.0159
11
4.75596
21
-5.01595
0
LINE
8
BLACK
6
CONTINUOUS
10
4.75596
20
-5.01595
11
4.77109
21
-5.02828
0
LINE
8
BLACK
6
CONTINUOUS
10
4.77109
20
-5.02828
11
4.77109
21
-5.02828
0
LINE
8
BLACK
6
CONTINUOUS
10
4.77109
20
-5.02828
11
4.77109
21
-5.02828
0
LINE
8
BLACK
6
CONTINUOUS
10
4.77109
20
-5.02828
11
4.7711
21
-5.02829
0
LINE
8
BLACK
6
CONTINUOUS
10
4.7711
20
-5.02829
11
4.77116
21
-5.02835
0
LINE
8
BLACK
6
CONTINUOUS
10
4.77116
20
-5.02835
11
4.77122
21
-5.02842
0
LINE
8
BLACK
6
CONTINUOUS
10
4.77122
20
-5.02842
11
4.78366
21
-5.04345
0
LINE
8
BLACK
6
CONTINUOUS
10
4.78366
20
-5.04345
11
4.78367
21
-5.04346
0
LINE
8
BLACK
6
CONTINUOUS
10
4.78367
20
-5.04346
11
4.78372
21
-5.04354
0
LINE
8
BLACK
6
CONTINUOUS
10
4.78372
20
-5.04354
11
4.78377
21
-5.04361
0
LINE
8
BLACK
6
CONTINUOUS
10
4.78377
20
-5.04361
11
4.79305
21
-5.06078
0
LINE
8
BLACK
6
CONTINUOUS
10
4.79305
20
-5.06078
11
4.79305
21
-5.06078
0
LINE
8
BLACK
6
CONTINUOUS
10
4.79305
20
-5.06078
11
4.79305
21
-5.06078
0
LINE
8
BLACK
6
CONTINUOUS
10
4.79305
20
-5.06078
11
4.79306
21
-5.06079
0
LINE
8
BLACK
6
CONTINUOUS
10
4.79306
20
-5.06079
11
4.79309
21
-5.06088
0
LINE
8
BLACK
6
CONTINUOUS
10
4.79309
20
-5.06088
11
4.79313
21
-5.06096
0
LINE
8
BLACK
6
CONTINUOUS
10
4.79313
20
-5.06096
11
4.7989
21
-5.0796
0
LINE
8
BLACK
6
CONTINUOUS
10
4.7989
20
-5.0796
11
4.7989
21
-5.07961
0
LINE
8
BLACK
6
CONTINUOUS
10
4.7989
20
-5.07961
11
4.79892
21
-5.0797
0
LINE
8
BLACK
6
CONTINUOUS
10
4.79892
20
-5.0797
11
4.79894
21
-5.07979
0
LINE
8
BLACK
6
CONTINUOUS
10
4.79894
20
-5.07979
11
4.80098
21
-5.0992
0
LINE
8
BLACK
6
CONTINUOUS
10
4.80098
20
-5.0992
11
4.80098
21
-5.09921
0
LINE
8
BLACK
6
CONTINUOUS
10
4.80098
20
-5.09921
11
4.80098
21
-5.09926
0
LINE
8
BLACK
6
CONTINUOUS
10
4.80098
20
-5.09926
11
4.80098
21
-5.0993
0
LINE
8
BLACK
6
CONTINUOUS
10
4.80098
20
-5.0993
11
4.80098
21
-5.09995
0
LINE
8
BLACK
6
CONTINUOUS
10
4.80098
20
-5.09995
11
4.80098
21
-5.09995
0
LINE
8
BLACK
6
CONTINUOUS
10
4.80098
20
-5.09995
11
4.80098
21
-6.50005
0
LINE
8
BLACK
6
CONTINUOUS
10
4.80098
20
-6.50005
11
4.80098
21
-6.5001
0
LINE
8
BLACK
6
CONTINUOUS
10
4.80098
20
-6.5001
11
4.80098
21
-6.5001
0
LINE
8
BLACK
6
CONTINUOUS
10
4.80098
20
-6.5001
11
4.79908
21
-6.51952
0
LINE
8
BLACK
6
CONTINUOUS
10
4.79908
20
-6.51952
11
4.79907
21
-6.51953
0
LINE
8
BLACK
6
CONTINUOUS
10
4.79907
20
-6.51953
11
4.79905
21
-6.51962
0
LINE
8
BLACK
6
CONTINUOUS
10
4.79905
20
-6.51962
11
4.79904
21
-6.51971
0
LINE
8
BLACK
6
CONTINUOUS
10
4.79904
20
-6.51971
11
4.7934
21
-6.53839
0
LINE
8
BLACK
6
CONTINUOUS
10
4.7934
20
-6.53839
11
4.79339
21
-6.5384
0
LINE
8
BLACK
6
CONTINUOUS
10
4.79339
20
-6.5384
11
4.79336
21
-6.53849
0
LINE
8
BLACK
6
CONTINUOUS
10
4.79336
20
-6.53849
11
4.79332
21
-6.53857
0
LINE
8
BLACK
6
CONTINUOUS
10
4.79332
20
-6.53857
11
4.78416
21
-6.5558
0
LINE
8
BLACK
6
CONTINUOUS
10
4.78416
20
-6.5558
11
4.78415
21
-6.55581
0
LINE
8
BLACK
6
CONTINUOUS
10
4.78415
20
-6.55581
11
4.7841
21
-6.55589
0
LINE
8
BLACK
6
CONTINUOUS
10
4.7841
20
-6.55589
11
4.78405
21
-6.55596
0
LINE
8
BLACK
6
CONTINUOUS
10
4.78405
20
-6.55596
11
4.77172
21
-6.57109
0
LINE
8
BLACK
6
CONTINUOUS
10
4.77172
20
-6.57109
11
4.77171
21
-6.5711
0
LINE
8
BLACK
6
CONTINUOUS
10
4.77171
20
-6.5711
11
4.77165
21
-6.57116
0
LINE
8
BLACK
6
CONTINUOUS
10
4.77165
20
-6.57116
11
4.77158
21
-6.57122
0
LINE
8
BLACK
6
CONTINUOUS
10
4.77158
20
-6.57122
11
4.75655
21
-6.58366
0
LINE
8
BLACK
6
CONTINUOUS
10
4.75655
20
-6.58366
11
4.75654
21
-6.58367
0
LINE
8
BLACK
6
CONTINUOUS
10
4.75654
20
-6.58367
11
4.75646
21
-6.58372
0
LINE
8
BLACK
6
CONTINUOUS
10
4.75646
20
-6.58372
11
4.75639
21
-6.58377
0
LINE
8
BLACK
6
CONTINUOUS
10
4.75639
20
-6.58377
11
4.73922
21
-6.59305
0
LINE
8
BLACK
6
CONTINUOUS
10
4.73922
20
-6.59305
11
4.73921
21
-6.59306
0
LINE
8
BLACK
6
CONTINUOUS
10
4.73921
20
-6.59306
11
4.73912
21
-6.59309
0
LINE
8
BLACK
6
CONTINUOUS
10
4.73912
20
-6.59309
11
4.73904
21
-6.59313
0
LINE
8
BLACK
6
CONTINUOUS
10
4.73904
20
-6.59313
11
4.7204
21
-6.5989
0
LINE
8
BLACK
6
CONTINUOUS
10
4.7204
20
-6.5989
11
4.72039
21
-6.5989
0
LINE
8
BLACK
6
CONTINUOUS
10
4.72039
20
-6.5989
11
4.7203
21
-6.59892
0
LINE
8
BLACK
6
CONTINUOUS
10
4.7203
20
-6.59892
11
4.72021
21
-6.59894
0
LINE
8
BLACK
6
CONTINUOUS
10
4.72021
20
-6.59894
11
4.7008
21
-6.60098
0
LINE
8
BLACK
6
CONTINUOUS
10
4.7008
20
-6.60098
11
4.70079
21
-6.60098
0
LINE
8
BLACK
6
CONTINUOUS
10
4.70079
20
-6.60098
11
4.70074
21
-6.60098
0
LINE
8
BLACK
6
CONTINUOUS
10
4.70074
20
-6.60098
11
4.7007
21
-6.60098
0
LINE
8
BLACK
6
CONTINUOUS
10
4.7007
20
-6.60098
11
4.70005
21
-6.60098
0
LINE
8
BLACK
6
CONTINUOUS
10
4.70005
20
-6.60098
11
4.70005
21
-6.60098
0
LINE
8
BLACK
6
CONTINUOUS
10
4.70005
20
-6.60098
11
0.924952
21
-6.60098
0
LINE
8
BLACK
6
CONTINUOUS
10
0.924952
20
-6.60098
11
0.924905
21
-6.60098
0
LINE
8
BLACK
6
CONTINUOUS
10
0.925003
20
-5.00098
11
0.924355
21
-5.00099
0
LINE
8
BLACK
6
CONTINUOUS
10
0.924355
20
-5.00099
11
0.905091
21
-5.00301
0
LINE
8
BLACK
6
CONTINUOUS
10
0.905091
20
-5.00301
11
0.886632
21
-5.00873
0
LINE
8
BLACK
6
CONTINUOUS
10
0.886632
20
-5.00873
11
0.869634
21
-5.01792
0
LINE
8
BLACK
6
CONTINUOUS
10
0.869634
20
-5.01792
11
0.854745
21
-5.03023
0
LINE
8
BLACK
6
CONTINUOUS
10
0.854745
20
-5.03023
11
0.842532
21
-5.04521
0
LINE
8
BLACK
6
CONTINUOUS
10
0.842532
20
-5.04521
11
0.83346
21
-5.06227
0
LINE
8
BLACK
6
CONTINUOUS
10
0.83346
20
-5.06227
11
0.827875
21
-5.08077
0
LINE
8
BLACK
6
CONTINUOUS
10
0.827875
20
-5.08077
11
0.825984
21
-5.10005
0
LINE
8
BLACK
6
CONTINUOUS
10
0.825984
20
-5.10005
11
0.825984
21
-6.5
0
LINE
8
BLACK
6
CONTINUOUS
10
0.825984
20
-6.5
11
0.825987
21
-6.50064
0
LINE
8
BLACK
6
CONTINUOUS
10
0.825987
20
-6.50064
11
0.828011
21
-6.51991
0
LINE
8
BLACK
6
CONTINUOUS
10
0.828011
20
-6.51991
11
0.833725
21
-6.53837
0
LINE
8
BLACK
6
CONTINUOUS
10
0.833725
20
-6.53837
11
0.842916
21
-6.55537
0
LINE
8
BLACK
6
CONTINUOUS
10
0.842916
20
-6.55537
11
0.855233
21
-6.57026
0
LINE
8
BLACK
6
CONTINUOUS
10
0.855233
20
-6.57026
11
0.870208
21
-6.58247
0
LINE
8
BLACK
6
CONTINUOUS
10
0.870208
20
-6.58247
11
0.88727
21
-6.59154
0
LINE
8
BLACK
6
CONTINUOUS
10
0.88727
20
-6.59154
11
0.905769
21
-6.59713
0
LINE
8
BLACK
6
CONTINUOUS
10
0.905769
20
-6.59713
11
0.925048
21
-6.59902
0
LINE
8
BLACK
6
CONTINUOUS
10
0.925048
20
-6.59902
11
4.7
21
-6.59902
0
LINE
8
BLACK
6
CONTINUOUS
10
4.7
20
-6.59902
11
4.70064
21
-6.59901
0
LINE
8
BLACK
6
CONTINUOUS
10
4.70064
20
-6.59901
11
4.71991
21
-6.59699
0
LINE
8
BLACK
6
CONTINUOUS
10
4.71991
20
-6.59699
11
4.73837
21
-6.59127
0
LINE
8
BLACK
6
CONTINUOUS
10
4.73837
20
-6.59127
11
4.75537
21
-6.58208
0
LINE
8
BLACK
6
CONTINUOUS
10
4.75537
20
-6.58208
11
4.77026
21
-6.56977
0
LINE
8
BLACK
6
CONTINUOUS
10
4.77026
20
-6.56977
11
4.78247
21
-6.55479
0
LINE
8
BLACK
6
CONTINUOUS
10
4.78247
20
-6.55479
11
4.79154
21
-6.53773
0
LINE
8
BLACK
6
CONTINUOUS
10
4.79154
20
-6.53773
11
4.79713
21
-6.51923
0
LINE
8
BLACK
6
CONTINUOUS
10
4.79713
20
-6.51923
11
4.79902
21
-6.49995
0
LINE
8
BLACK
6
CONTINUOUS
10
4.79902
20
-6.49995
11
4.79902
21
-5.1
0
LINE
8
BLACK
6
CONTINUOUS
10
4.79902
20
-5.1
11
4.79901
21
-5.09936
0
LINE
8
BLACK
6
CONTINUOUS
10
4.79901
20
-5.09936
11
4.79699
21
-5.08009
0
LINE
8
BLACK
6
CONTINUOUS
10
4.79699
20
-5.08009
11
4.79127
21
-5.06163
0
LINE
8
BLACK
6
CONTINUOUS
10
4.79127
20
-5.06163
11
4.78208
21
-5.04463
0
LINE
8
BLACK
6
CONTINUOUS
10
4.78208
20
-5.04463
11
4.76977
21
-5.02974
0
LINE
8
BLACK
6
CONTINUOUS
10
4.76977
20
-5.02974
11
4.75479
21
-5.01753
0
LINE
8
BLACK
6
CONTINUOUS
10
4.75479
20
-5.01753
11
4.73773
21
-5.00846
0
LINE
8
BLACK
6
CONTINUOUS
10
4.73773
20
-5.00846
11
4.71923
21
-5.00287
0
LINE
8
BLACK
6
CONTINUOUS
10
4.71923
20
-5.00287
11
4.69995
21
-5.00098
0
LINE
8
BLACK
6
CONTINUOUS
10
4.69995
20
-5.00098
11
0.925003
21
-5.00098
0
LINE
8
BLACK
6
CONTINUOUS
10
0.86063
20
-6.51306
11
0.863716
21
-6.50561
0
LINE
8
BLACK
6
CONTINUOUS
10
0.863716
20
-6.50561
11
0.868197
21
-6.4989
0
LINE
8
BLACK
6
CONTINUOUS
10
0.868197
20
-6.4989
11
0.8739
21
-6.4932
0
LINE
8
BLACK
6
CONTINUOUS
10
0.8739
20
-6.4932
11
0.880606
21
-6.48872
0
LINE
8
BLACK
6
CONTINUOUS
10
0.880606
20
-6.48872
11
0.888057
21
-6.48563
0
LINE
8
BLACK
6
CONTINUOUS
10
0.888057
20
-6.48563
11
0.895967
21
-6.48406
0
LINE
8
BLACK
6
CONTINUOUS
10
0.895967
20
-6.48406
11
0.904033
21
-6.48406
0
LINE
8
BLACK
6
CONTINUOUS
10
0.904033
20
-6.48406
11
0.911943
21
-6.48563
0
LINE
8
BLACK
6
CONTINUOUS
10
0.911943
20
-6.48563
11
0.919394
21
-6.48872
0
LINE
8
BLACK
6
CONTINUOUS
10
0.919394
20
-6.48872
11
0.9261
21
-6.4932
0
LINE
8
BLACK
6
CONTINUOUS
10
0.9261
20
-6.4932
11
0.931803
21
-6.4989
0
LINE
8
BLACK
6
CONTINUOUS
10
0.931803
20
-6.4989
11
0.936284
21
-6.50561
0
LINE
8
BLACK
6
CONTINUOUS
10
0.936284
20
-6.50561
11
0.93937
21
-6.51306
0
LINE
8
BLACK
6
CONTINUOUS
10
0.93937
20
-6.51306
11
0.940944
21
-6.52097
0
LINE
8
BLACK
6
CONTINUOUS
10
0.940944
20
-6.52097
11
0.940944
21
-6.52903
0
LINE
8
BLACK
6
CONTINUOUS
10
0.940944
20
-6.52903
11
0.93937
21
-6.53694
0
LINE
8
BLACK
6
CONTINUOUS
10
0.93937
20
-6.53694
11
0.936284
21
-6.54439
0
LINE
8
BLACK
6
CONTINUOUS
10
0.936284
20
-6.54439
11
0.931803
21
-6.5511
0
LINE
8
BLACK
6
CONTINUOUS
10
0.931803
20
-6.5511
11
0.9261
21
-6.5568
0
LINE
8
BLACK
6
CONTINUOUS
10
0.9261
20
-6.5568
11
0.919394
21
-6.56128
0
LINE
8
BLACK
6
CONTINUOUS
10
0.919394
20
-6.56128
11
0.911943
21
-6.56437
0
LINE
8
BLACK
6
CONTINUOUS
10
0.911943
20
-6.56437
11
0.904033
21
-6.56594
0
LINE
8
BLACK
6
CONTINUOUS
10
0.904033
20
-6.56594
11
0.895967
21
-6.56594
0
LINE
8
BLACK
6
CONTINUOUS
10
0.895967
20
-6.56594
11
0.888057
21
-6.56437
0
LINE
8
BLACK
6
CONTINUOUS
10
0.888057
20
-6.56437
11
0.880606
21
-6.56128
0
LINE
8
BLACK
6
CONTINUOUS
10
0.880606
20
-6.56128
11
0.8739
21
-6.5568
0
LINE
8
BLACK
6
CONTINUOUS
10
0.8739
20
-6.5568
11
0.868197
21
-6.5511
0
LINE
8
BLACK
6
CONTINUOUS
10
0.868197
20
-6.5511
11
0.863716
21
-6.54439
0
LINE
8
BLACK
6
CONTINUOUS
10
0.863716
20
-6.54439
11
0.86063
21
-6.53694
0
LINE
8
BLACK
6
CONTINUOUS
10
0.86063
20
-6.53694
11
0.859056
21
-6.52903
0
LINE
8
BLACK
6
CONTINUOUS
10
0.859056
20
-6.52903
11
0.859056
21
-6.52097
0
LINE
8
BLACK
6
CONTINUOUS
10
0.859056
20
-6.52097
11
0.86063
21
-6.51306
0
LINE
8
BLACK
6
CONTINUOUS
10
0.863267
20
-6.53614
11
0.866147
21
-6.54309
0
LINE
8
BLACK
6
CONTINUOUS
10
0.866147
20
-6.54309
11
0.870327
21
-6.54935
0
LINE
8
BLACK
6
CONTINUOUS
10
0.870327
20
-6.54935
11
0.875648
21
-6.55467
0
LINE
8
BLACK
6
CONTINUOUS
10
0.875648
20
-6.55467
11
0.881905
21
-6.55885
0
LINE
8
BLACK
6
CONTINUOUS
10
0.881905
20
-6.55885
11
0.888857
21
-6.56173
0
LINE
8
BLACK
6
CONTINUOUS
10
0.888857
20
-6.56173
11
0.896238
21
-6.5632
0
LINE
8
BLACK
6
CONTINUOUS
10
0.896238
20
-6.5632
11
0.903762
21
-6.5632
0
LINE
8
BLACK
6
CONTINUOUS
10
0.903762
20
-6.5632
11
0.911143
21
-6.56173
0
LINE
8
BLACK
6
CONTINUOUS
10
0.911143
20
-6.56173
11
0.918095
21
-6.55885
0
LINE
8
BLACK
6
CONTINUOUS
10
0.918095
20
-6.55885
11
0.924352
21
-6.55467
0
LINE
8
BLACK
6
CONTINUOUS
10
0.924352
20
-6.55467
11
0.929673
21
-6.54935
0
LINE
8
BLACK
6
CONTINUOUS
10
0.929673
20
-6.54935
11
0.933853
21
-6.54309
0
LINE
8
BLACK
6
CONTINUOUS
10
0.933853
20
-6.54309
11
0.936733
21
-6.53614
0
LINE
8
BLACK
6
CONTINUOUS
10
0.936733
20
-6.53614
11
0.938201
21
-6.52876
0
LINE
8
BLACK
6
CONTINUOUS
10
0.938201
20
-6.52876
11
0.938201
21
-6.52124
0
LINE
8
BLACK
6
CONTINUOUS
10
0.938201
20
-6.52124
11
0.936733
21
-6.51386
0
LINE
8
BLACK
6
CONTINUOUS
10
0.936733
20
-6.51386
11
0.933853
21
-6.50691
0
LINE
8
BLACK
6
CONTINUOUS
10
0.933853
20
-6.50691
11
0.929673
21
-6.50065
0
LINE
8
BLACK
6
CONTINUOUS
10
0.929673
20
-6.50065
11
0.924352
21
-6.49533
0
LINE
8
BLACK
6
CONTINUOUS
10
0.924352
20
-6.49533
11
0.918095
21
-6.49115
0
LINE
8
BLACK
6
CONTINUOUS
10
0.918095
20
-6.49115
11
0.911143
21
-6.48827
0
LINE
8
BLACK
6
CONTINUOUS
10
0.911143
20
-6.48827
11
0.903762
21
-6.4868
0
LINE
8
BLACK
6
CONTINUOUS
10
0.903762
20
-6.4868
11
0.896238
21
-6.4868
0
LINE
8
BLACK
6
CONTINUOUS
10
0.896238
20
-6.4868
11
0.888857
21
-6.48827
0
LINE
8
BLACK
6
CONTINUOUS
10
0.888857
20
-6.48827
11
0.881905
21
-6.49115
0
LINE
8
BLACK
6
CONTINUOUS
10
0.881905
20
-6.49115
11
0.875648
21
-6.49533
0
LINE
8
BLACK
6
CONTINUOUS
10
0.875648
20
-6.49533
11
0.870327
21
-6.50065
0
LINE
8
BLACK
6
CONTINUOUS
10
0.870327
20
-6.50065
11
0.866147
21
-6.50691
0
LINE
8
BLACK
6
CONTINUOUS
10
0.866147
20
-6.50691
11
0.863267
21
-6.51386
0
LINE
8
BLACK
6
CONTINUOUS
10
0.863267
20
-6.51386
11
0.861799
21
-6.52124
0
LINE
8
BLACK
6
CONTINUOUS
10
0.861799
20
-6.52124
11
0.861799
21
-6.52876
0
LINE
8
BLACK
6
CONTINUOUS
10
0.861799
20
-6.52876
11
0.863267
21
-6.53614
0
LINE
8
BLACK
6
CONTINUOUS
10
4.68563
20
-6.51306
11
4.68872
21
-6.50561
0
LINE
8
BLACK
6
CONTINUOUS
10
4.68872
20
-6.50561
11
4.6932
21
-6.4989
0
LINE
8
BLACK
6
CONTINUOUS
10
4.6932
20
-6.4989
11
4.6989
21
-6.4932
0
LINE
8
BLACK
6
CONTINUOUS
10
4.6989
20
-6.4932
11
4.70561
21
-6.48872
0
LINE
8
BLACK
6
CONTINUOUS
10
4.70561
20
-6.48872
11
4.71306
21
-6.48563
0
LINE
8
BLACK
6
CONTINUOUS
10
4.71306
20
-6.48563
11
4.72097
21
-6.48406
0
LINE
8
BLACK
6
CONTINUOUS
10
4.72097
20
-6.48406
11
4.72903
21
-6.48406
0
LINE
8
BLACK
6
CONTINUOUS
10
4.72903
20
-6.48406
11
4.73694
21
-6.48563
0
LINE
8
BLACK
6
CONTINUOUS
10
4.73694
20
-6.48563
11
4.74439
21
-6.48872
0
LINE
8
BLACK
6
CONTINUOUS
10
4.74439
20
-6.48872
11
4.7511
21
-6.4932
0
LINE
8
BLACK
6
CONTINUOUS
10
4.7511
20
-6.4932
11
4.7568
21
-6.4989
0
LINE
8
BLACK
6
CONTINUOUS
10
4.7568
20
-6.4989
11
4.76128
21
-6.50561
0
LINE
8
BLACK
6
CONTINUOUS
10
4.76128
20
-6.50561
11
4.76437
21
-6.51306
0
LINE
8
BLACK
6
CONTINUOUS
10
4.76437
20
-6.51306
11
4.76594
21
-6.52097
0
LINE
8
BLACK
6
CONTINUOUS
10
4.76594
20
-6.52097
11
4.76594
21
-6.52903
0
LINE
8
BLACK
6
CONTINUOUS
10
4.76594
20
-6.52903
11
4.76437
21
-6.53694
0
LINE
8
BLACK
6
CONTINUOUS
10
4.76437
20
-6.53694
11
4.76128
21
-6.54439
0
LINE
8
BLACK
6
CONTINUOUS
10
4.76128
20
-6.54439
11
4.7568
21
-6.5511
0
LINE
8
BLACK
6
CONTINUOUS
10
4.7568
20
-6.5511
11
4.7511
21
-6.5568
0
LINE
8
BLACK
6
CONTINUOUS
10
4.7511
20
-6.5568
11
4.74439
21
-6.56128
0
LINE
8
BLACK
6
CONTINUOUS
10
4.74439
20
-6.56128
11
4.73694
21
-6.56437
0
LINE
8
BLACK
6
CONTINUOUS
10
4.73694
20
-6.56437
11
4.72903
21
-6.56594
0
LINE
8
BLACK
6
CONTINUOUS
10
4.72903
20
-6.56594
11
4.72097
21
-6.56594
0
LINE
8
BLACK
6
CONTINUOUS
10
4.72097
20
-6.56594
11
4.71306
21
-6.56437
0
LINE
8
BLACK
6
CONTINUOUS
10
4.71306
20
-6.56437
11
4.70561
21
-6.56128
0
LINE
8
BLACK
6
CONTINUOUS
10
4.70561
20
-6.56128
11
4.6989
21
-6.5568
0
LINE
8
BLACK
6
CONTINUOUS
10
4.6989
20
-6.5568
11
4.6932
21
-6.5511
0
LINE
8
BLACK
6
CONTINUOUS
10
4.6932
20
-6.5511
11
4.68872
21
-6.54439
0
LINE
8
BLACK
6
CONTINUOUS
10
4.68872
20
-6.54439
11
4.68563
21
-6.53694
0
LINE
8
BLACK
6
CONTINUOUS
10
4.68563
20
-6.53694
11
4.68406
21
-6.52903
0
LINE
8
BLACK
6
CONTINUOUS
10
4.68406
20
-6.52903
11
4.68406
21
-6.52097
0
LINE
8
BLACK
6
CONTINUOUS
10
4.68406
20
-6.52097
11
4.68563
21
-6.51306
0
LINE
8
BLACK
6
CONTINUOUS
10
4.68827
20
-6.53614
11
4.69115
21
-6.54309
0
LINE
8
BLACK
6
CONTINUOUS
10
4.69115
20
-6.54309
11
4.69533
21
-6.54935
0
LINE
8
BLACK
6
CONTINUOUS
10
4.69533
20
-6.54935
11
4.70065
21
-6.55467
0
LINE
8
BLACK
6
CONTINUOUS
10
4.70065
20
-6.55467
11
4.70691
21
-6.55885
0
LINE
8
BLACK
6
CONTINUOUS
10
4.70691
20
-6.55885
11
4.71386
21
-6.56173
0
LINE
8
BLACK
6
CONTINUOUS
10
4.71386
20
-6.56173
11
4.72124
21
-6.5632
0
LINE
8
BLACK
6
CONTINUOUS
10
4.72124
20
-6.5632
11
4.72876
21
-6.5632
0
LINE
8
BLACK
6
CONTINUOUS
10
4.72876
20
-6.5632
11
4.73614
21
-6.56173
0
LINE
8
BLACK
6
CONTINUOUS
10
4.73614
20
-6.56173
11
4.74309
21
-6.55885
0
LINE
8
BLACK
6
CONTINUOUS
10
4.74309
20
-6.55885
11
4.74935
21
-6.55467
0
LINE
8
BLACK
6
CONTINUOUS
10
4.74935
20
-6.55467
11
4.75467
21
-6.54935
0
LINE
8
BLACK
6
CONTINUOUS
10
4.75467
20
-6.54935
11
4.75885
21
-6.54309
0
LINE
8
BLACK
6
CONTINUOUS
10
4.75885
20
-6.54309
11
4.76173
21
-6.53614
0
LINE
8
BLACK
6
CONTINUOUS
10
4.76173
20
-6.53614
11
4.7632
21
-6.52876
0
LINE
8
BLACK
6
CONTINUOUS
10
4.7632
20
-6.52876
11
4.7632
21
-6.52124
0
LINE
8
BLACK
6
CONTINUOUS
10
4.7632
20
-6.52124
11
4.76173
21
-6.51386
0
LINE
8
BLACK
6
CONTINUOUS
10
4.76173
20
-6.51386
11
4.75885
21
-6.50691
0
LINE
8
BLACK
6
CONTINUOUS
10
4.75885
20
-6.50691
11
4.75467
21
-6.50065
0
LINE
8
BLACK
6
CONTINUOUS
10
4.75467
20
-6.50065
11
4.74935
21
-6.49533
0
LINE
8
BLACK
6
CONTINUOUS
10
4.74935
20
-6.49533
11
4.74309
21
-6.49115
0
LINE
8
BLACK
6
CONTINUOUS
10
4.74309
20
-6.49115
11
4.73614
21
-6.48827
0
LINE
8
BLACK
6
CONTINUOUS
10
4.73614
20
-6.48827
11
4.72876
21
-6.4868
0
LINE
8
BLACK
6
CONTINUOUS
10
4.72876
20
-6.4868
11
4.72124
21
-6.4868
0
LINE
8
BLACK
6
CONTINUOUS
10
4.72124
20
-6.4868
11
4.71386
21
-6.48827
0
LINE
8
BLACK
6
CONTINUOUS
10
4.71386
20
-6.48827
11
4.70691
21
-6.49115
0
LINE
8
BLACK
6
CONTINUOUS
10
4.70691
20
-6.49115
11
4.70065
21
-6.49533
0
LINE
8
BLACK
6
CONTINUOUS
10
4.70065
20
-6.49533
11
4.69533
21
-6.50065
0
LINE
8
BLACK
6
CONTINUOUS
10
4.69533
20
-6.50065
11
4.69115
21
-6.50691
0
LINE
8
BLACK
6
CONTINUOUS
10
4.69115
20
-6.50691
11
4.68827
21
-6.51386
0
LINE
8
BLACK
6
CONTINUOUS
10
4.68827
20
-6.51386
11
4.6868
21
-6.52124
0
LINE
8
BLACK
6
CONTINUOUS
10
4.6868
20
-6.52124
11
4.6868
21
-6.52876
0
LINE
8
BLACK
6
CONTINUOUS
10
4.6868
20
-6.52876
11
4.68827
21
-6.53614
0
LINE
8
BLACK
6
CONTINUOUS
10
0.86063
20
-5.06306
11
0.863716
21
-5.05561
0
LINE
8
BLACK
6
CONTINUOUS
10
0.863716
20
-5.05561
11
0.868197
21
-5.0489
0
LINE
8
BLACK
6
CONTINUOUS
10
0.868197
20
-5.0489
11
0.8739
21
-5.0432
0
LINE
8
BLACK
6
CONTINUOUS
10
0.8739
20
-5.0432
11
0.880606
21
-5.03872
0
LINE
8
BLACK
6
CONTINUOUS
10
0.880606
20
-5.03872
11
0.888057
21
-5.03563
0
LINE
8
BLACK
6
CONTINUOUS
10
0.888057
20
-5.03563
11
0.895967
21
-5.03406
0
LINE
8
BLACK
6
CONTINUOUS
10
0.895967
20
-5.03406
11
0.904033
21
-5.03406
0
LINE
8
BLACK
6
CONTINUOUS
10
0.904033
20
-5.03406
11
0.911943
21
-5.03563
0
LINE
8
BLACK
6
CONTINUOUS
10
0.911943
20
-5.03563
11
0.919394
21
-5.03872
0
LINE
8
BLACK
6
CONTINUOUS
10
0.919394
20
-5.03872
11
0.9261
21
-5.0432
0
LINE
8
BLACK
6
CONTINUOUS
10
0.9261
20
-5.0432
11
0.931803
21
-5.0489
0
LINE
8
BLACK
6
CONTINUOUS
10
0.931803
20
-5.0489
11
0.936284
21
-5.05561
0
LINE
8
BLACK
6
CONTINUOUS
10
0.936284
20
-5.05561
11
0.93937
21
-5.06306
0
LINE
8
BLACK
6
CONTINUOUS
10
0.93937
20
-5.06306
11
0.940944
21
-5.07097
0
LINE
8
BLACK
6
CONTINUOUS
10
0.940944
20
-5.07097
11
0.940944
21
-5.07903
0
LINE
8
BLACK
6
CONTINUOUS
10
0.940944
20
-5.07903
11
0.93937
21
-5.08694
0
LINE
8
BLACK
6
CONTINUOUS
10
0.93937
20
-5.08694
11
0.936284
21
-5.09439
0
LINE
8
BLACK
6
CONTINUOUS
10
0.936284
20
-5.09439
11
0.931803
21
-5.1011
0
LINE
8
BLACK
6
CONTINUOUS
10
0.931803
20
-5.1011
11
0.9261
21
-5.1068
0
LINE
8
BLACK
6
CONTINUOUS
10
0.9261
20
-5.1068
11
0.919394
21
-5.11128
0
LINE
8
BLACK
6
CONTINUOUS
10
0.919394
20
-5.11128
11
0.911943
21
-5.11437
0
LINE
8
BLACK
6
CONTINUOUS
10
0.911943
20
-5.11437
11
0.904033
21
-5.11594
0
LINE
8
BLACK
6
CONTINUOUS
10
0.904033
20
-5.11594
11
0.895967
21
-5.11594
0
LINE
8
BLACK
6
CONTINUOUS
10
0.895967
20
-5.11594
11
0.888057
21
-5.11437
0
LINE
8
BLACK
6
CONTINUOUS
10
0.888057
20
-5.11437
11
0.880606
21
-5.11128
0
LINE
8
BLACK
6
CONTINUOUS
10
0.880606
20
-5.11128
11
0.8739
21
-5.1068
0
LINE
8
BLACK
6
CONTINUOUS
10
0.8739
20
-5.1068
11
0.868197
21
-5.1011
0
LINE
8
BLACK
6
CONTINUOUS
10
0.868197
20
-5.1011
11
0.863716
21
-5.09439
0
LINE
8
BLACK
6
CONTINUOUS
10
0.863716
20
-5.09439
11
0.86063
21
-5.08694
0
LINE
8
BLACK
6
CONTINUOUS
10
0.86063
20
-5.08694
11
0.859056
21
-5.07903
0
LINE
8
BLACK
6
CONTINUOUS
10
0.859056
20
-5.07903
11
0.859056
21
-5.07097
0
LINE
8
BLACK
6
CONTINUOUS
10
0.859056
20
-5.07097
11
0.86063
21
-5.06306
0
LINE
8
BLACK
6
CONTINUOUS
10
0.863267
20
-5.08614
11
0.866147
21
-5.09309
0
LINE
8
BLACK
6
CONTINUOUS
10
0.866147
20
-5.09309
11
0.870327
21
-5.09935
0
LINE
8
BLACK
6
CONTINUOUS
10
0.870327
20
-5.09935
11
0.875648
21
-5.10467
0
LINE
8
BLACK
6
CONTINUOUS
10
0.875648
20
-5.10467
11
0.881905
21
-5.10885
0
LINE
8
BLACK
6
CONTINUOUS
10
0.881905
20
-5.10885
11
0.888857
21
-5.11173
0
LINE
8
BLACK
6
CONTINUOUS
10
0.888857
20
-5.11173
11
0.896238
21
-5.1132
0
LINE
8
BLACK
6
CONTINUOUS
10
0.896238
20
-5.1132
11
0.903762
21
-5.1132
0
LINE
8
BLACK
6
CONTINUOUS
10
0.903762
20
-5.1132
11
0.911143
21
-5.11173
0
LINE
8
BLACK
6
CONTINUOUS
10
0.911143
20
-5.11173
11
0.918095
21
-5.10885
0
LINE
8
BLACK
6
CONTINUOUS
10
0.918095
20
-5.10885
11
0.924352
21
-5.10467
0
LINE
8
BLACK
6
CONTINUOUS
10
0.924352
20
-5.10467
11
0.929673
21
-5.09935
0
LINE
8
BLACK
6
CONTINUOUS
10
0.929673
20
-5.09935
11
0.933853
21
-5.09309
0
LINE
8
BLACK
6
CONTINUOUS
10
0.933853
20
-5.09309
11
0.936733
21
-5.08614
0
LINE
8
BLACK
6
CONTINUOUS
10
0.936733
20
-5.08614
11
0.938201
21
-5.07876
0
LINE
8
BLACK
6
CONTINUOUS
10
0.938201
20
-5.07876
11
0.938201
21
-5.07124
0
LINE
8
BLACK
6
CONTINUOUS
10
0.938201
20
-5.07124
11
0.936733
21
-5.06386
0
LINE
8
BLACK
6
CONTINUOUS
10
0.936733
20
-5.06386
11
0.933853
21
-5.05691
0
LINE
8
BLACK
6
CONTINUOUS
10
0.933853
20
-5.05691
11
0.929673
21
-5.05065
0
LINE
8
BLACK
6
CONTINUOUS
10
0.929673
20
-5.05065
11
0.924352
21
-5.04533
0
LINE
8
BLACK
6
CONTINUOUS
10
0.924352
20
-5.04533
11
0.918095
21
-5.04115
0
LINE
8
BLACK
6
CONTINUOUS
10
0.918095
20
-5.04115
11
0.911143
21
-5.03827
0
LINE
8
BLACK
6
CONTINUOUS
10
0.911143
20
-5.03827
11
0.903762
21
-5.0368
0
LINE
8
BLACK
6
CONTINUOUS
10
0.903762
20
-5.0368
11
0.896238
21
-5.0368
0
LINE
8
BLACK
6
CONTINUOUS
10
0.896238
20
-5.0368
11
0.888857
21
-5.03827
0
LINE
8
BLACK
6
CONTINUOUS
10
0.888857
20
-5.03827
11
0.881905
21
-5.04115
0
LINE
8
BLACK
6
CONTINUOUS
10
0.881905
20
-5.04115
11
0.875648
21
-5.04533
0
LINE
8
BLACK
6
CONTINUOUS
10
0.875648
20
-5.04533
11
0.870327
21
-5.05065
0
LINE
8
BLACK
6
CONTINUOUS
10
0.870327
20
-5.05065
11
0.866147
21
-5.05691
0
LINE
8
BLACK
6
CONTINUOUS
10
0.866147
20
-5.05691
11
0.863267
21
-5.06386
0
LINE
8
BLACK
6
CONTINUOUS
10
0.863267
20
-5.06386
11
0.861799
21
-5.07124
0
LINE
8
BLACK
6
CONTINUOUS
10
0.861799
20
-5.07124
11
0.861799
21
-5.07876
0
LINE
8
BLACK
6
CONTINUOUS
10
0.861799
20
-5.07876
11
0.863267
21
-5.08614
0
LINE
8
BLACK
6
CONTINUOUS
10
4.6874
20
-5.06306
11
4.69049
21
-5.05561
0
LINE
8
BLACK
6
CONTINUOUS
10
4.69049
20
-5.05561
11
4.69497
21
-5.0489
0
LINE
8
BLACK
6
CONTINUOUS
10
4.69497
20
-5.0489
11
4.70067
21
-5.0432
0
LINE
8
BLACK
6
CONTINUOUS
10
4.70067
20
-5.0432
11
4.70738
21
-5.03872
0
LINE
8
BLACK
6
CONTINUOUS
10
4.70738
20
-5.03872
11
4.71483
21
-5.03563
0
LINE
8
BLACK
6
CONTINUOUS
10
4.71483
20
-5.03563
11
4.72274
21
-5.03406
0
LINE
8
BLACK
6
CONTINUOUS
10
4.72274
20
-5.03406
11
4.7308
21
-5.03406
0
LINE
8
BLACK
6
CONTINUOUS
10
4.7308
20
-5.03406
11
4.73871
21
-5.03563
0
LINE
8
BLACK
6
CONTINUOUS
10
4.73871
20
-5.03563
11
4.74617
21
-5.03872
0
LINE
8
BLACK
6
CONTINUOUS
10
4.74617
20
-5.03872
11
4.75287
21
-5.0432
0
LINE
8
BLACK
6
CONTINUOUS
10
4.75287
20
-5.0432
11
4.75857
21
-5.0489
0
LINE
8
BLACK
6
CONTINUOUS
10
4.75857
20
-5.0489
11
4.76306
21
-5.05561
0
LINE
8
BLACK
6
CONTINUOUS
10
4.76306
20
-5.05561
11
4.76614
21
-5.06306
0
LINE
8
BLACK
6
CONTINUOUS
10
4.76614
20
-5.06306
11
4.76772
21
-5.07097
0
LINE
8
BLACK
6
CONTINUOUS
10
4.76772
20
-5.07097
11
4.76772
21
-5.07903
0
LINE
8
BLACK
6
CONTINUOUS
10
4.76772
20
-5.07903
11
4.76614
21
-5.08694
0
LINE
8
BLACK
6
CONTINUOUS
10
4.76614
20
-5.08694
11
4.76306
21
-5.09439
0
LINE
8
BLACK
6
CONTINUOUS
10
4.76306
20
-5.09439
11
4.75857
21
-5.1011
0
LINE
8
BLACK
6
CONTINUOUS
10
4.75857
20
-5.1011
11
4.75287
21
-5.1068
0
LINE
8
BLACK
6
CONTINUOUS
10
4.75287
20
-5.1068
11
4.74617
21
-5.11128
0
LINE
8
BLACK
6
CONTINUOUS
10
4.74617
20
-5.11128
11
4.73871
21
-5.11437
0
LINE
8
BLACK
6
CONTINUOUS
10
4.73871
20
-5.11437
11
4.7308
21
-5.11594
0
LINE
8
BLACK
6
CONTINUOUS
10
4.7308
20
-5.11594
11
4.72274
21
-5.11594
0
LINE
8
BLACK
6
CONTINUOUS
10
4.72274
20
-5.11594
11
4.71483
21
-5.11437
0
LINE
8
BLACK
6
CONTINUOUS
10
4.71483
20
-5.11437
11
4.70738
21
-5.11128
0
LINE
8
BLACK
6
CONTINUOUS
10
4.70738
20
-5.11128
11
4.70067
21
-5.1068
0
LINE
8
BLACK
6
CONTINUOUS
10
4.70067
20
-5.1068
11
4.69497
21
-5.1011
0
LINE
8
BLACK
6
CONTINUOUS
10
4.69497
20
-5.1011
11
4.69049
21
-5.09439
0
LINE
8
BLACK
6
CONTINUOUS
10
4.69049
20
-5.09439
11
4.6874
21
-5.08694
0
LINE
8
BLACK
6
CONTINUOUS
10
4.6874
20
-5.08694
11
4.68583
21
-5.07903
0
LINE
8
BLACK
6
CONTINUOUS
10
4.68583
20
-5.07903
11
4.68583
21
-5.07097
0
LINE
8
BLACK
6
CONTINUOUS
10
4.68583
20
-5.07097
11
4.6874
21
-5.06306
0
LINE
8
BLACK
6
CONTINUOUS
10
4.69004
20
-5.08614
11
4.69292
21
-5.09309
0
LINE
8
BLACK
6
CONTINUOUS
10
4.69292
20
-5.09309
11
4.6971
21
-5.09935
0
LINE
8
BLACK
6
CONTINUOUS
10
4.6971
20
-5.09935
11
4.70242
21
-5.10467
0
LINE
8
BLACK
6
CONTINUOUS
10
4.70242
20
-5.10467
11
4.70868
21
-5.10885
0
LINE
8
BLACK
6
CONTINUOUS
10
4.70868
20
-5.10885
11
4.71563
21
-5.11173
0
LINE
8
BLACK
6
CONTINUOUS
10
4.71563
20
-5.11173
11
4.72301
21
-5.1132
0
LINE
8
BLACK
6
CONTINUOUS
10
4.72301
20
-5.1132
11
4.73053
21
-5.1132
0
LINE
8
BLACK
6
CONTINUOUS
10
4.73053
20
-5.1132
11
4.73791
21
-5.11173
0
LINE
8
BLACK
6
CONTINUOUS
10
4.73791
20
-5.11173
11
4.74487
21
-5.10885
0
LINE
8
BLACK
6
CONTINUOUS
10
4.74487
20
-5.10885
11
4.75112
21
-5.10467
0
LINE
8
BLACK
6
CONTINUOUS
10
4.75112
20
-5.10467
11
4.75644
21
-5.09935
0
LINE
8
BLACK
6
CONTINUOUS
10
4.75644
20
-5.09935
11
4.76062
21
-5.09309
0
LINE
8
BLACK
6
CONTINUOUS
10
4.76062
20
-5.09309
11
4.7635
21
-5.08614
0
LINE
8
BLACK
6
CONTINUOUS
10
4.7635
20
-5.08614
11
4.76497
21
-5.07876
0
LINE
8
BLACK
6
CONTINUOUS
10
4.76497
20
-5.07876
11
4.76497
21
-5.07124
0
LINE
8
BLACK
6
CONTINUOUS
10
4.76497
20
-5.07124
11
4.7635
21
-5.06386
0
LINE
8
BLACK
6
CONTINUOUS
10
4.7635
20
-5.06386
11
4.76062
21
-5.05691
0
LINE
8
BLACK
6
CONTINUOUS
10
4.76062
20
-5.05691
11
4.75644
21
-5.05065
0
LINE
8
BLACK
6
CONTINUOUS
10
4.75644
20
-5.05065
11
4.75112
21
-5.04533
0
LINE
8
BLACK
6
CONTINUOUS
10
4.75112
20
-5.04533
11
4.74487
21
-5.04115
0
LINE
8
BLACK
6
CONTINUOUS
10
4.74487
20
-5.04115
11
4.73791
21
-5.03827
0
LINE
8
BLACK
6
CONTINUOUS
10
4.73791
20
-5.03827
11
4.73053
21
-5.0368
0
LINE
8
BLACK
6
CONTINUOUS
10
4.73053
20
-5.0368
11
4.72301
21
-5.0368
0
LINE
8
BLACK
6
CONTINUOUS
10
4.72301
20
-5.0368
11
4.71563
21
-5.03827
0
LINE
8
BLACK
6
CONTINUOUS
10
4.71563
20
-5.03827
11
4.70868
21
-5.04115
0
LINE
8
BLACK
6
CONTINUOUS
10
4.70868
20
-5.04115
11
4.70242
21
-5.04533
0
LINE
8
BLACK
6
CONTINUOUS
10
4.70242
20
-5.04533
11
4.6971
21
-5.05065
0
LINE
8
BLACK
6
CONTINUOUS
10
4.6971
20
-5.05065
11
4.69292
21
-5.05691
0
LINE
8
BLACK
6
CONTINUOUS
10
4.69292
20
-5.05691
11
4.69004
21
-5.06386
0
LINE
8
BLACK
6
CONTINUOUS
10
4.69004
20
-5.06386
11
4.68857
21
-5.07124
0
LINE
8
BLACK
6
CONTINUOUS
10
4.68857
20
-5.07124
11
4.68857
21
-5.07876
0
LINE
8
BLACK
6
CONTINUOUS
10
4.68857
20
-5.07876
11
4.69004
21
-5.08614
  0
ENDSEC
  0
EOF
