<svg id="レイヤー_1" data-name="レイヤー 1" xmlns="http://www.w3.org/2000/svg" viewBox="0 0 286.3417 115.3417"><defs><style>.cls-1{fill-opacity:0;stroke:#000;stroke-linecap:round;stroke-linejoin:round;stroke-width:0.1417px;}</style></defs><path class="cls-1" d="M278.4,340.2V243" transform="translate(-265.7291 -233.9291)"/><path class="cls-1" d="M539.4,340.2h-261" transform="translate(-265.7291 -233.9291)"/><path class="cls-1" d="M539.4,243v97.2" transform="translate(-265.7291 -233.9291)"/><path class="cls-1" d="M278.4,243h261" transform="translate(-265.7291 -233.9291)"/><circle class="cls-1" cx="280.8708" cy="4.6709" r="2.8"/><circle class="cls-1" cx="280.8708" cy="109.8708" r="2.8"/><circle class="cls-1" cx="5.4709" cy="109.8708" r="2.8"/><circle class="cls-1" cx="5.4709" cy="5.4708" r="2.8"/><path class="cls-1" d="M265.8,342V241.2" transform="translate(-265.7291 -233.9291)"/><path class="cls-1" d="M544.8,349.2H273" transform="translate(-265.7291 -233.9291)"/><path class="cls-1" d="M552,241.2V342" transform="translate(-265.7291 -233.9291)"/><path class="cls-1" d="M273,234H544.8" transform="translate(-265.7291 -233.9291)"/><path class="cls-1" d="M544.8,349.2A7.17,7.17,0,0,0,552,342" transform="translate(-265.7291 -233.9291)"/><path class="cls-1" d="M265.8,342a7.17,7.17,0,0,0,7.2,7.2" transform="translate(-265.7291 -233.9291)"/><path class="cls-1" d="M552,241.2a7.17,7.17,0,0,0-7.2-7.2h0" transform="translate(-265.7291 -233.9291)"/><path class="cls-1" d="M273,234a7.17,7.17,0,0,0-7.2,7.2h0" transform="translate(-265.7291 -233.9291)"/></svg>