<svg id="レイヤー_1" data-name="レイヤー 1" xmlns="http://www.w3.org/2000/svg" viewBox="0 0 67.4417 115.3417"><defs><style>.cls-1{fill-opacity:0;stroke:#000;stroke-linecap:round;stroke-linejoin:round;stroke-width:0.1417px;}</style></defs><path class="cls-1" d="M392.1,231.9h-.5" transform="translate(-386.6291 -231.8291)"/><path class="cls-1" d="M391.6,232l-.5.1" transform="translate(-386.6291 -231.8291)"/><path class="cls-1" d="M391.2,232l-.4.1" transform="translate(-386.6291 -231.8291)"/><path class="cls-1" d="M390.7,232.1l-.4.1" transform="translate(-386.6291 -231.8291)"/><path class="cls-1" d="M390.3,232.2l-.4.1" transform="translate(-386.6291 -231.8291)"/><path class="cls-1" d="M389.9,232.4l-.4.2" transform="translate(-386.6291 -231.8291)"/><path class="cls-1" d="M389.6,232.5l-.3.2" transform="translate(-386.6291 -231.8291)"/><path class="cls-1" d="M389.2,232.7l-.3.2" transform="translate(-386.6291 -231.8291)"/><path class="cls-1" d="M388.9,232.9l-.3.2" transform="translate(-386.6291 -231.8291)"/><path class="cls-1" d="M388.6,233.1l-.3.2" transform="translate(-386.6291 -231.8291)"/><path class="cls-1" d="M388.4,233.3l-.2.2" transform="translate(-386.6291 -231.8291)"/><path class="cls-1" d="M388.2,233.5l-.2.2" transform="translate(-386.6291 -231.8291)"/><path class="cls-1" d="M388,233.7l-.2.2" transform="translate(-386.6291 -231.8291)"/><path class="cls-1" d="M387.8,234l-.2.2" transform="translate(-386.6291 -231.8291)"/><path class="cls-1" d="M387.6,234.2l-.2.3" transform="translate(-386.6291 -231.8291)"/><path class="cls-1" d="M387.4,234.5l-.1.3" transform="translate(-386.6291 -231.8291)"/><path class="cls-1" d="M387.3,234.7l-.1.3" transform="translate(-386.6291 -231.8291)"/><path class="cls-1" d="M387.2,235l-.1.2" transform="translate(-386.6291 -231.8291)"/><path class="cls-1" d="M387.1,235.2l-.1.2" transform="translate(-386.6291 -231.8291)"/><path class="cls-1" d="M387,235.5l-.1.2" transform="translate(-386.6291 -231.8291)"/><path class="cls-1" d="M386.9,235.7l-.1.2" transform="translate(-386.6291 -231.8291)"/><path class="cls-1" d="M386.9,235.9l-.1.2" transform="translate(-386.6291 -231.8291)"/><path class="cls-1" d="M386.8,236.2v.2" transform="translate(-386.6291 -231.8291)"/><path class="cls-1" d="M386.8,236.4v.2" transform="translate(-386.6291 -231.8291)"/><path class="cls-1" d="M386.7,236.6v.2" transform="translate(-386.6291 -231.8291)"/><path class="cls-1" d="M386.7,236.7v.2" transform="translate(-386.6291 -231.8291)"/><path class="cls-1" d="M386.7,236.9v.1" transform="translate(-386.6291 -231.8291)"/><path class="cls-1" d="M386.7,237v.2" transform="translate(-386.6291 -231.8291)"/><path class="cls-1" d="M386.7,237.3v.1" transform="translate(-386.6291 -231.8291)"/><path class="cls-1" d="M448.5,231.9H392.1" transform="translate(-386.6291 -231.8291)"/><path class="cls-1" d="M448.5,347.1h.5" transform="translate(-386.6291 -231.8291)"/><path class="cls-1" d="M449,347.1l.5-.1" transform="translate(-386.6291 -231.8291)"/><path class="cls-1" d="M449.5,347l.4-.1" transform="translate(-386.6291 -231.8291)"/><path class="cls-1" d="M449.9,346.9l.4-.1" transform="translate(-386.6291 -231.8291)"/><path class="cls-1" d="M450.3,346.8l.4-.1" transform="translate(-386.6291 -231.8291)"/><path class="cls-1" d="M450.7,346.7l.4-.2" transform="translate(-386.6291 -231.8291)"/><path class="cls-1" d="M451.1,346.6l.3-.2" transform="translate(-386.6291 -231.8291)"/><path class="cls-1" d="M451.4,346.4l.3-.2" transform="translate(-386.6291 -231.8291)"/><path class="cls-1" d="M451.7,346.2l.3-.2" transform="translate(-386.6291 -231.8291)"/><path class="cls-1" d="M451.9,346l.3-.2" transform="translate(-386.6291 -231.8291)"/><path class="cls-1" d="M452.2,345.8l.2-.2" transform="translate(-386.6291 -231.8291)"/><path class="cls-1" d="M452.4,345.5l.2-.2" transform="translate(-386.6291 -231.8291)"/><path class="cls-1" d="M452.6,345.3l.2-.2" transform="translate(-386.6291 -231.8291)"/><path class="cls-1" d="M452.8,345.1l.2-.2" transform="translate(-386.6291 -231.8291)"/><path class="cls-1" d="M453,344.8l.2-.3" transform="translate(-386.6291 -231.8291)"/><path class="cls-1" d="M453.2,344.6l.1-.3" transform="translate(-386.6291 -231.8291)"/><path class="cls-1" d="M453.3,344.3l.1-.3" transform="translate(-386.6291 -231.8291)"/><path class="cls-1" d="M453.4,344.1l.1-.2" transform="translate(-386.6291 -231.8291)"/><path class="cls-1" d="M453.5,343.8l.1-.2" transform="translate(-386.6291 -231.8291)"/><path class="cls-1" d="M453.6,343.6l.1-.2" transform="translate(-386.6291 -231.8291)"/><path class="cls-1" d="M453.7,343.3l.1-.2" transform="translate(-386.6291 -231.8291)"/><path class="cls-1" d="M453.8,343.1l.1-.2" transform="translate(-386.6291 -231.8291)"/><path class="cls-1" d="M453.8,342.9v-.2" transform="translate(-386.6291 -231.8291)"/><path class="cls-1" d="M453.9,342.7v-.2" transform="translate(-386.6291 -231.8291)"/><path class="cls-1" d="M453.9,342.5v-.2" transform="translate(-386.6291 -231.8291)"/><path class="cls-1" d="M453.9,342.3v-.2" transform="translate(-386.6291 -231.8291)"/><path class="cls-1" d="M454,342.2v-.3" transform="translate(-386.6291 -231.8291)"/><path class="cls-1" d="M454,341.9v-.2" transform="translate(-386.6291 -231.8291)"/><path class="cls-1" d="M454,341.7h0" transform="translate(-386.6291 -231.8291)"/><path class="cls-1" d="M386.7,341.7v.5" transform="translate(-386.6291 -231.8291)"/><path class="cls-1" d="M386.7,342.2l.1.5" transform="translate(-386.6291 -231.8291)"/><path class="cls-1" d="M386.8,342.6l.1.4" transform="translate(-386.6291 -231.8291)"/><path class="cls-1" d="M386.9,343.1l.1.4" transform="translate(-386.6291 -231.8291)"/><path class="cls-1" d="M387,343.5l.1.4" transform="translate(-386.6291 -231.8291)"/><path class="cls-1" d="M387.1,343.9l.2.4" transform="translate(-386.6291 -231.8291)"/><path class="cls-1" d="M387.2,344.2l.2.3" transform="translate(-386.6291 -231.8291)"/><path class="cls-1" d="M387.4,344.6l.2.3" transform="translate(-386.6291 -231.8291)"/><path class="cls-1" d="M387.6,344.9l.2.3" transform="translate(-386.6291 -231.8291)"/><path class="cls-1" d="M387.8,345.1l.2.3" transform="translate(-386.6291 -231.8291)"/><path class="cls-1" d="M388,345.4l.2.2" transform="translate(-386.6291 -231.8291)"/><path class="cls-1" d="M388.2,345.6l.2.2" transform="translate(-386.6291 -231.8291)"/><path class="cls-1" d="M388.5,345.8l.2.2" transform="translate(-386.6291 -231.8291)"/><path class="cls-1" d="M388.7,346l.2.2" transform="translate(-386.6291 -231.8291)"/><path class="cls-1" d="M389,346.2l.3.2" transform="translate(-386.6291 -231.8291)"/><path class="cls-1" d="M389.2,346.4l.3.1" transform="translate(-386.6291 -231.8291)"/><path class="cls-1" d="M389.5,346.5l.3.1" transform="translate(-386.6291 -231.8291)"/><path class="cls-1" d="M389.7,346.6l.3.1" transform="translate(-386.6291 -231.8291)"/><path class="cls-1" d="M390,346.7l.2.1" transform="translate(-386.6291 -231.8291)"/><path class="cls-1" d="M390.2,346.8l.2.1" transform="translate(-386.6291 -231.8291)"/><path class="cls-1" d="M390.5,346.9l.2.1" transform="translate(-386.6291 -231.8291)"/><path class="cls-1" d="M390.7,346.9l.2.1" transform="translate(-386.6291 -231.8291)"/><path class="cls-1" d="M390.9,347h.2" transform="translate(-386.6291 -231.8291)"/><path class="cls-1" d="M391.1,347h.2" transform="translate(-386.6291 -231.8291)"/><path class="cls-1" d="M391.3,347.1h.2" transform="translate(-386.6291 -231.8291)"/><path class="cls-1" d="M391.5,347.1h.2" transform="translate(-386.6291 -231.8291)"/><path class="cls-1" d="M391.7,347.1h.1" transform="translate(-386.6291 -231.8291)"/><path class="cls-1" d="M391.8,347.1h.2" transform="translate(-386.6291 -231.8291)"/><path class="cls-1" d="M392,347.1h.1" transform="translate(-386.6291 -231.8291)"/><path class="cls-1" d="M392.1,347.1h56.4" transform="translate(-386.6291 -231.8291)"/><path class="cls-1" d="M454,237.4v-.5" transform="translate(-386.6291 -231.8291)"/><path class="cls-1" d="M454,236.9l-.1-.5" transform="translate(-386.6291 -231.8291)"/><path class="cls-1" d="M453.9,236.4l-.1-.4" transform="translate(-386.6291 -231.8291)"/><path class="cls-1" d="M453.9,236l-.1-.4" transform="translate(-386.6291 -231.8291)"/><path class="cls-1" d="M453.8,235.6l-.1-.4" transform="translate(-386.6291 -231.8291)"/><path class="cls-1" d="M453.6,235.2l-.1-.3" transform="translate(-386.6291 -231.8291)"/><path class="cls-1" d="M453.5,234.9l-.2-.3" transform="translate(-386.6291 -231.8291)"/><path class="cls-1" d="M453.3,234.5l-.2-.3" transform="translate(-386.6291 -231.8291)"/><path class="cls-1" d="M453.1,234.2l-.2-.3" transform="translate(-386.6291 -231.8291)"/><path class="cls-1" d="M452.9,234l-.2-.3" transform="translate(-386.6291 -231.8291)"/><path class="cls-1" d="M452.7,233.7l-.2-.2" transform="translate(-386.6291 -231.8291)"/><path class="cls-1" d="M452.5,233.5l-.2-.2" transform="translate(-386.6291 -231.8291)"/><path class="cls-1" d="M452.3,233.3l-.2-.2" transform="translate(-386.6291 -231.8291)"/><path class="cls-1" d="M452,233.1l-.3-.2" transform="translate(-386.6291 -231.8291)"/><path class="cls-1" d="M451.8,232.9l-.3-.2" transform="translate(-386.6291 -231.8291)"/><path class="cls-1" d="M451.5,232.7l-.3-.1" transform="translate(-386.6291 -231.8291)"/><path class="cls-1" d="M451.3,232.6l-.3-.1" transform="translate(-386.6291 -231.8291)"/><path class="cls-1" d="M451,232.5l-.3-.1" transform="translate(-386.6291 -231.8291)"/><path class="cls-1" d="M450.8,232.4l-.3-.1" transform="translate(-386.6291 -231.8291)"/><path class="cls-1" d="M450.5,232.3l-.2-.1" transform="translate(-386.6291 -231.8291)"/><path class="cls-1" d="M450.3,232.2l-.2-.1" transform="translate(-386.6291 -231.8291)"/><path class="cls-1" d="M450,232.2l-.2-.1" transform="translate(-386.6291 -231.8291)"/><path class="cls-1" d="M449.8,232.1l-.2-.1" transform="translate(-386.6291 -231.8291)"/><path class="cls-1" d="M449.6,232.1h-.2" transform="translate(-386.6291 -231.8291)"/><path class="cls-1" d="M449.4,232h-.2" transform="translate(-386.6291 -231.8291)"/><path class="cls-1" d="M449.2,232H449" transform="translate(-386.6291 -231.8291)"/><path class="cls-1" d="M449,232h-.1" transform="translate(-386.6291 -231.8291)"/><path class="cls-1" d="M448.9,231.9h-.2" transform="translate(-386.6291 -231.8291)"/><path class="cls-1" d="M448.7,231.9h-.1" transform="translate(-386.6291 -231.8291)"/><path class="cls-1" d="M454,341.7V237.4" transform="translate(-386.6291 -231.8291)"/><path class="cls-1" d="M386.7,305.6v36" transform="translate(-386.6291 -231.8291)"/><path class="cls-1" d="M397.8,305.6H386.7" transform="translate(-386.6291 -231.8291)"/><path class="cls-1" d="M397.8,280.1v25.5" transform="translate(-386.6291 -231.8291)"/><path class="cls-1" d="M386.7,280.1h11.1" transform="translate(-386.6291 -231.8291)"/><path class="cls-1" d="M386.7,237.4v42.7" transform="translate(-386.6291 -231.8291)"/><circle class="cls-1" cx="61.5709" cy="109.9708" r="2.8"/><circle class="cls-1" cx="5.4709" cy="109.9708" r="2.8"/><circle class="cls-1" cx="5.4709" cy="5.5708" r="2.8"/></svg>